<svg width="134" height="136" viewBox="0 0 134 136" fill="none" xmlns="http://www.w3.org/2000/svg">
<g clip-path="url(#clip0)">
<path d="M31.1363 74.7453C38.9363 99.6913 80.4298 137.504 100.871 130.124C121.312 122.744 112.956 72.9606 105.156 48.0146C97.3564 23.0686 74.4618 8.82785 54.0216 16.2122C33.584 23.5913 23.3364 49.7993 31.1363 74.7453Z" fill="#EEDFF2"/>
<path opacity="0.8" d="M7.18555 62.7109C7.18555 92.199 49.8302 124.403 73.3548 124.403C96.8793 124.403 122.156 92.199 122.156 62.7109C122.156 33.2229 112.23 13.2578 77.491 35.6139C56.5636 49.0824 7.18555 33.2229 7.18555 62.7109Z" fill="#B8A6FF"/>
<path opacity="0.8" d="M80.5253 22.5249C83.306 25.78 94.3042 24.4176 98.6866 18.6251C103.069 12.8327 99.1752 4.80459 96.3944 1.54491C93.6136 -1.71021 87.8096 0.347097 83.4273 6.13956C79.0449 11.932 77.7445 19.2697 80.5253 22.5249Z" fill="#B8A6FF"/>
<path opacity="0.8" d="M13.9888 98.8235C15.3406 95.6918 13.0264 86.4751 9.28317 83.9698C5.53996 81.4644 1.78206 86.6214 0.430245 89.7531C-0.921571 92.8848 1.01799 97.452 4.76487 99.9573C8.50441 102.458 12.637 101.951 13.9888 98.8235Z" fill="#B8A6FF"/>
<path opacity="0.8" d="M112.609 19.9464C111.771 21.8894 113.59 27.8693 116.205 29.6203C118.824 31.3713 121.249 28.2259 122.086 26.2784C122.924 24.3353 121.484 21.3408 118.865 19.5898C116.249 17.8434 113.446 18.0034 112.609 19.9464Z" fill="#EEDFF2"/>
<g clip-path="url(#clip1)">
<path d="M11.7522 101.018C11.2279 101.882 10.7034 102.815 10.7133 103.827C10.7377 106.013 13.0934 107.335 15.1538 108.064C24.4063 111.328 34.8357 111.961 43.9553 108.348C48.1577 106.683 51.9721 104.179 55.6732 101.584C60.6246 98.1139 65.442 94.4495 70.1066 90.6027C71.6481 89.3309 73.2158 87.9868 74.0882 86.1904C74.9606 84.394 74.96 82.0171 73.5554 80.5951C72.2902 79.3167 70.3123 79.1421 68.5147 79.0972C60.1573 78.8891 51.7739 79.8321 43.6637 81.8542C35.4902 83.8898 27.5872 87.0187 20.2542 91.1616C18.302 92.2645 17.1897 93.0977 15.8483 94.912C14.3933 96.8842 13.0239 98.9213 11.7522 101.018Z" fill="#FBB245"/>
<path d="M11.9979 101.541C11.6327 102.507 11.3491 103.649 11.8971 104.524C12.1978 105.004 12.7025 105.314 13.1963 105.593C20.3706 109.661 29.0377 111.014 37.1051 109.326C47.9999 107.047 57.0414 99.6837 65.4017 92.3324C67.0969 90.8399 68.7907 89.3343 70.273 87.6296C71.1735 86.5952 72.0103 85.4558 72.3549 84.1284C72.6995 82.8009 72.4588 81.2493 71.4518 80.3178C70.5686 79.4985 69.2916 79.2956 68.0926 79.1778C66.314 79.0043 64.5267 78.9408 62.7409 78.9843C57.998 79.1044 53.3141 79.9933 48.6636 80.9286C39.1455 82.8456 29.4885 85.0508 21.1462 90.02C16.7846 92.6206 13.7862 96.8028 11.9979 101.541Z" fill="#FFCF5C"/>
<path d="M70.3486 80.1366C70.3092 81.6788 69.5119 83.1046 68.5387 84.2987C66.1637 87.2057 62.7372 89.026 59.347 90.6368C53.3953 93.4644 47.2495 95.8797 40.9658 97.86C38.687 98.5796 36.3614 99.2454 33.9737 99.3269C31.4885 99.4117 29.0318 98.8617 26.605 98.3143C24.8664 97.9212 23.1238 97.5293 21.4335 96.9612C20.731 96.7259 20.0266 96.453 19.4417 95.996C18.2081 95.0309 17.7089 93.4123 17.4077 91.8758C16.507 87.308 16.7708 82.5187 18.1336 78.0683C18.4736 76.9593 18.8822 75.8709 19.3555 74.8133C21.3194 70.4392 24.4268 66.5906 28.2642 63.7215C30.0311 62.4009 31.9993 61.5106 34.1167 60.9537C37.0105 60.1946 39.9043 59.4355 42.798 58.6764C44.0626 58.3434 45.3339 58.0108 46.6334 57.8626C52.0793 57.2367 57.3092 60.5987 61.2074 64.1135C62.0037 64.8324 62.7648 65.5926 63.4835 66.3918C66.3453 69.5677 68.5563 73.3374 69.8418 77.4212C69.8575 77.4682 69.8711 77.5158 69.8868 77.5628C70.1464 78.3994 70.371 79.2618 70.3486 80.1366Z" fill="#FBB245"/>
<path d="M63.4857 66.3914C63.8329 67.8386 64.1237 69.2997 64.2306 70.7822C64.6194 76.1479 62.533 81.5395 59.0581 85.6433C55.5831 89.7472 50.8062 92.6234 45.7191 94.3618C41.9444 95.6529 37.9193 96.351 33.9527 95.9332C29.9841 95.5161 26.0779 93.9262 23.2497 91.1099C21.7324 89.5993 20.5653 87.7646 19.7548 85.7852C18.8777 83.6436 18.0529 80.6925 18.1331 78.0664C18.4732 76.9574 18.8817 75.869 19.355 74.8114C21.319 70.4373 24.4264 66.5887 28.2638 63.7196C30.0306 62.399 31.9989 61.5087 34.1163 60.9518C37.01 60.1927 39.9038 59.4336 42.7976 58.6745C44.0621 58.3415 45.3334 58.0089 46.6329 57.8607C52.0788 57.2348 57.3087 60.5968 61.207 64.1116C62.0059 64.8319 62.7676 65.5942 63.4857 66.3914Z" fill="#FFCF5C"/>
<path d="M51.4878 58.1939C47.99 58.1478 44.5318 59.3103 41.5967 61.2138C38.6615 63.1173 36.2308 65.7359 34.2852 68.643C32.792 70.8724 31.5574 73.3096 30.9677 75.9294C30.1581 79.523 30.5948 83.2903 31.4752 86.8656C32.3557 90.441 33.6694 93.8967 34.6441 97.4496C34.852 98.207 35.0452 99.0067 34.852 99.7693C34.5701 100.886 33.5679 101.581 32.456 101.861C31.726 102.045 30.9471 102.051 30.2963 101.879C28.4312 101.388 26.5042 100.993 24.6716 100.396C23.1519 99.9005 21.545 99.7562 19.9995 99.3034C18.4104 98.8384 18.3234 97.0816 18.1448 95.5906C16.8232 84.5293 21.7289 73.2675 29.6521 65.4438C31.1287 63.9847 32.7251 62.6391 34.4527 61.4864C38.2561 58.9516 42.9233 57.8481 47.4433 57.7381C47.6831 57.7321 47.9215 57.7288 48.161 57.7296C49.1691 57.7274 50.1266 57.9547 51.1236 58.1482C51.2837 58.1763 51.3333 58.1464 51.4878 58.1939Z" fill="#FBB245"/>
<path d="M62.4367 64.5003C62.336 65.6483 60.7 65.0043 59.9481 65.0808C58.7593 65.2018 57.6044 65.5347 56.5139 66.0147C54.3637 66.9571 52.4821 68.4471 50.8142 70.0818C47.9479 72.89 45.3889 76.1228 44.017 79.8931C43.4817 81.3669 43.1275 82.9187 42.3845 84.2998C42.2441 84.5593 42.0798 84.8212 41.822 84.9599C41.5392 85.1126 41.1959 85.0855 40.876 85.054C40.0885 84.975 39.3036 84.8819 38.5187 84.7731C37.9646 84.6968 36.9457 84.8721 36.4852 84.4981C35.9899 84.096 36.0614 82.9788 36.1063 82.2138C36.1142 82.0773 36.1203 81.9502 36.1256 81.8435C36.233 77.3676 38.2956 73.8069 41.0737 70.4017C44.1794 66.5939 48.2784 63.5603 52.9189 61.9497C54.282 61.4767 55.7256 61.2379 57.1691 61.335C58.1566 61.4014 59.2809 61.5004 60.2104 61.9818C60.7145 62.2426 61.6564 62.9309 62.1401 63.6362C62.3385 63.9308 62.4599 64.2296 62.4367 64.5003Z" fill="#FBB245"/>
<path d="M62.136 63.6375C62.0979 63.7155 62.0439 63.7847 61.9728 63.8409C61.9692 63.8284 60.2393 63.5359 59.9957 63.5676C59.4112 63.6431 58.7904 63.7873 58.2155 63.9273C53.3956 65.099 49.3075 68.5144 46.3269 72.3917C45.7057 73.1985 45.1345 74.0469 44.6153 74.9364C43.3607 77.0929 41.954 79.6869 41.5284 82.1612C41.4722 82.4884 41.4078 82.8336 41.1844 83.0766C40.2293 84.1312 37.419 83.4317 36.4836 82.7035C36.3255 82.5809 36.2013 82.4128 36.1048 82.2165C36.1127 82.08 36.1188 81.9529 36.1241 81.8462C36.2315 77.3703 38.2941 73.8096 41.0722 70.4044C44.1779 66.5966 48.2769 63.563 52.9174 61.9524C54.2805 61.4794 55.7241 61.2406 57.1676 61.3377C58.1551 61.4041 59.2794 61.5031 60.209 61.9845C60.7104 62.2438 61.6522 62.9321 62.136 63.6375Z" fill="#FBDC48"/>
<path d="M47.4455 57.7375C47.2786 57.8032 47.1071 57.868 46.9255 57.9289C41.0479 59.8982 36.7932 63.3411 33.4207 68.5213C31.0082 72.2269 29.3531 76.4767 29.0607 80.916C28.8945 83.4369 29.1596 85.9641 29.4896 88.4682C29.8154 90.9422 30.2086 93.4171 30.937 95.8049C31.4827 97.5937 32.2206 99.3432 32.4305 101.201C32.454 101.416 32.4683 101.638 32.4582 101.86C31.7281 102.045 30.9493 102.051 30.2984 101.879C28.4334 101.388 26.5064 100.993 24.6738 100.396C23.154 99.8999 21.5471 99.7556 20.0017 99.3028C18.4126 98.8378 18.3256 97.081 18.147 95.59C16.8253 84.5287 21.7311 73.2669 29.6542 65.4432C31.1309 63.9841 32.7273 62.6385 34.4549 61.4858C38.2604 58.9504 42.9249 57.8455 47.4455 57.7375Z" fill="#FBDC48"/>
</g>
<g clip-path="url(#clip2)">
<path d="M93.7273 63.4016C91.0461 63.1954 89.0314 60.8463 89.2377 58.164L90.1332 46.51C90.3395 43.8288 92.6885 41.8141 95.3708 42.0204C98.052 42.2266 100.067 44.5757 99.8604 47.258L98.9649 58.912C98.7587 61.5942 96.4085 63.6079 93.7273 63.4016ZM95.3393 42.4426C92.8904 42.2549 90.7444 44.0937 90.5555 46.5426L89.6599 58.1966C89.4721 60.6455 91.311 62.7916 93.7599 62.9804C96.2088 63.1682 98.3548 61.3294 98.5437 58.8805L99.4393 47.2265C99.6281 44.7765 97.7882 42.6315 95.3393 42.4426Z" fill="#F9DD82"/>
<path d="M98.4232 48.5485C100.246 46.7261 100.246 43.7714 98.4232 41.949C96.6008 40.1266 93.6461 40.1266 91.8237 41.949C90.0013 43.7714 90.0013 46.7261 91.8237 48.5485C93.6461 50.3709 96.6008 50.3709 98.4232 48.5485Z" fill="#AA7355"/>
<path d="M97.3342 46.1668C97.8416 44.9474 97.2644 43.5475 96.045 43.0401C94.8256 42.5327 93.4257 43.1099 92.9183 44.3293C92.4109 45.5487 92.988 46.9486 94.2075 47.456C95.4269 47.9634 96.8268 47.3862 97.3342 46.1668Z" fill="#BDB39B"/>
<path d="M96.2329 45.3343C96.1863 45.9465 95.6511 46.4057 95.0378 46.3579C94.4256 46.3113 93.9664 45.7761 94.0142 45.1628C94.0608 44.5506 94.596 44.0914 95.2093 44.1392C95.8215 44.1858 96.2807 44.721 96.2329 45.3343Z" fill="#434244"/>
<path d="M97.2938 63.2292C99.1162 61.4068 99.1162 58.4521 97.2938 56.6297C95.4714 54.8073 92.5167 54.8073 90.6943 56.6297C88.8719 58.4521 88.8719 61.4068 90.6943 63.2292C92.5167 65.0516 95.4714 65.0516 97.2938 63.2292Z" fill="#AA7355"/>
<path d="M94.3549 62.2956C95.6606 62.0965 96.5577 60.8767 96.3586 59.5711C96.1596 58.2654 94.9398 57.3683 93.6341 57.5674C92.3285 57.7664 91.4314 58.9862 91.6304 60.2918C91.8294 61.5975 93.0492 62.4946 94.3549 62.2956Z" fill="#BDB39B"/>
<path d="M95.104 60.0147C95.0573 60.6269 94.5222 61.0861 93.9089 61.0384C93.2967 60.9917 92.8375 60.4565 92.8852 59.8432C92.9319 59.231 93.4671 58.7718 94.0804 58.8196C94.6926 58.8673 95.1518 59.4014 95.104 60.0147Z" fill="#434244"/>
<path d="M112.927 30.0515H55.1367V109.762H112.927V30.0515Z" fill="#FFFFF5"/>
<path d="M62.7982 45.9988C76.8851 45.9988 90.9734 45.9988 105.06 45.9988C106.21 45.9988 106.21 44.5968 105.06 44.5968C90.9734 44.5968 76.8851 44.5968 62.7982 44.5968C61.6486 44.5968 61.6486 45.9988 62.7982 45.9988Z" fill="#BBBCBF"/>
<path d="M62.598 54.0097C76.8322 54.0097 91.0663 54.0097 105.3 54.0097C106.183 54.0097 106.183 52.6431 105.3 52.6431C91.0663 52.6431 76.8322 52.6431 62.598 52.6431C61.7154 52.6442 61.7154 54.0097 62.598 54.0097Z" fill="#BBBCBF"/>
<path d="M62.5977 62.0738C76.8241 62.0738 91.0505 62.0738 105.277 62.0738C106.159 62.0738 106.159 60.7712 105.277 60.7712C91.0505 60.7712 76.8241 60.7712 62.5977 60.7712C61.7155 60.7712 61.7155 62.0738 62.5977 62.0738Z" fill="#BBBCBF"/>
<path d="M62.6572 70.2022C76.8719 70.2022 91.0866 70.2022 105.301 70.2022C106.183 70.2022 106.183 68.8356 105.301 68.8356C91.0866 68.8356 76.8719 68.8356 62.6572 68.8356C61.7757 68.8356 61.7757 70.2022 62.6572 70.2022Z" fill="#BBBCBF"/>
<path d="M62.6572 78.2978C76.8719 78.2978 91.0866 78.2978 105.301 78.2978C106.183 78.2978 106.183 76.9312 105.301 76.9312C91.0866 76.9312 76.8719 76.9312 62.6572 76.9312C61.7757 76.9312 61.7757 78.2978 62.6572 78.2978Z" fill="#BBBCBF"/>
<path d="M63.6069 98.6186C69.6825 98.6186 75.7581 98.6186 81.8337 98.6186C82.3297 98.6186 82.3297 97.8501 81.8337 97.8501C75.7581 97.8501 69.6825 97.8501 63.6069 97.8501C63.1108 97.8501 63.1108 98.6186 63.6069 98.6186Z" fill="#51927E"/>
<path d="M78.3078 95.1396C77.6521 95.3773 76.991 95.4598 76.3039 95.3957L76.2084 95.1211C76.1367 94.9149 75.7959 94.8714 75.747 95.1211C75.7318 95.2004 75.569 95.8994 75.3042 95.5553C75.1489 95.3534 75.2358 95.0375 75.2629 94.8085C75.2922 94.5588 75.289 94.2419 75.1196 94.0367C74.9242 93.8001 74.3847 93.5602 74.134 93.8717C73.7443 94.3558 74.3305 95.0115 73.8691 95.5358C73.5988 95.8441 73.1125 95.6465 72.8629 95.3947C73.1928 94.8389 73.1223 94.2104 72.8325 93.6492C72.751 93.4907 72.4829 93.4831 72.4037 93.6492C72.1681 94.1442 72.0379 94.8128 72.2441 95.3404C72.0238 95.4934 71.7231 95.5271 71.4897 95.3882C71.9141 94.739 72.078 93.9129 71.8479 93.0652C71.7849 92.8318 71.4962 92.8264 71.3703 93.0033C70.9828 93.5493 70.6191 94.1203 70.6625 94.8161C70.6756 95.031 70.7374 95.2275 70.8384 95.3979C70.4606 95.8256 69.9255 96.1144 69.3067 96.1751C69.297 96.1393 69.2883 96.1035 69.2774 96.0688C69.2362 95.9244 69.1884 95.7822 69.1396 95.6411C69.1396 95.3067 69.145 94.9735 69.1591 94.6402C69.2112 94.5577 69.2709 94.4752 69.3306 94.3873C69.6118 93.9802 69.8527 93.5471 70.0709 93.1042C70.9404 91.337 71.2737 89.3202 71.0642 87.3663C71.0392 87.1394 70.8123 87.0449 70.6343 87.1882C70.1057 87.6137 69.8647 88.2281 69.6639 88.8577C69.4012 89.6827 69.2003 90.5273 69.0375 91.3772C68.8432 92.3889 68.726 93.4147 68.675 94.4438C68.6543 94.4731 68.6348 94.5013 68.6142 94.5306C68.3298 94.929 68.4926 95.3654 68.6467 95.7811C68.6489 95.9971 68.6533 96.2131 68.6609 96.4291C68.6652 96.5692 68.7694 96.6658 68.9062 96.6745C68.9094 96.6745 68.9138 96.6745 68.917 96.6745C69.0278 97.1315 69.107 97.5972 69.158 98.0639C69.3067 99.4024 69.1732 100.758 68.8096 102.051C68.3189 101.821 68.2516 99.2352 68.2386 98.8867C68.2028 97.9793 68.2701 97.0859 68.3385 96.186C68.4101 96.1437 68.46 96.0612 68.4405 95.9537L68.3721 95.5781C68.3309 95.3523 67.9585 95.3523 67.9184 95.5781C67.723 96.6604 67.7067 97.7893 67.7371 98.8857C67.7534 99.4599 67.8022 100.032 67.8684 100.602C67.9216 101.064 67.9531 101.559 68.1355 101.991C68.3471 102.495 69.0809 102.918 69.2959 102.201C69.5933 101.21 69.7181 100.167 69.7236 99.1342C69.7279 98.3027 69.6194 97.4701 69.4294 96.6604C70.1263 96.58 70.7374 96.2555 71.1825 95.78C71.2802 95.8506 71.3898 95.9092 71.5092 95.9537C71.8251 96.0698 72.2202 95.9646 72.5177 95.7594C72.5708 95.8115 72.6273 95.8614 72.6924 95.9059C73.2905 96.3087 74.2393 96.25 74.4835 95.4544C74.6051 95.056 74.566 94.6619 74.4933 94.2581C74.5714 94.2158 74.6442 94.2332 74.7115 94.3102C74.8569 94.4253 74.7755 94.8259 74.7571 94.9854C74.731 95.2166 74.7136 95.4782 74.8309 95.691C74.985 95.9732 75.2141 96.1838 75.5506 96.1665C75.7536 96.1556 75.9023 96.008 76.0076 95.8213C76.0423 95.8408 76.0814 95.8527 76.1281 95.8582C76.9172 95.9613 77.6879 95.8766 78.4369 95.6074C78.7289 95.5021 78.6019 95.0332 78.3078 95.1396ZM69.4793 91.6909C69.6074 90.9593 69.7811 90.2374 69.9808 89.5221C70.1317 88.9815 70.2826 88.4105 70.6061 87.9546C70.7049 89.9443 70.212 91.8548 69.2318 93.5667C69.2883 92.9392 69.3697 92.314 69.4793 91.6909ZM71.4256 93.8652C71.4213 94.2495 71.3258 94.6142 71.1564 94.9366C71.0772 94.6022 71.2292 94.2104 71.4256 93.8652Z" fill="#3B464C"/>
<path d="M79.5476 96.1633C79.2751 96.1633 79.2751 96.5867 79.5476 96.5867C79.8201 96.5867 79.8201 96.1633 79.5476 96.1633Z" fill="#3B464C"/>
<path d="M97.3746 91.5145L90.3223 109.522L95.9439 107.454L98.6655 112.79L105.718 94.782L97.3746 91.5145Z" fill="#005EB3"/>
<path d="M102.728 91.5145L109.781 109.522L104.159 107.454L101.438 112.79L94.3853 94.782L102.728 91.5145Z" fill="#0084F4"/>
<path d="M100.109 105.22C90.6406 102.109 91.3096 90.1902 91.3096 90.1902C95.1197 86.38 100.052 85.8728 100.052 85.8728C100.052 85.8728 104.985 86.38 108.795 90.1919C108.795 90.1919 109.462 102.109 99.9949 105.222H100.109V105.22Z" fill="#FFD34D"/>
<path d="M100.052 103.862L99.8972 103.801C93.2341 101.172 92.6005 93.2842 92.5634 90.93L92.5601 90.7379L92.7033 90.6098C95.6237 87.9877 99.0142 87.3036 99.9849 87.157L100.049 87.1469L100.113 87.157C101.089 87.3103 104.498 88.0113 107.398 90.6098L107.541 90.7379L107.538 90.93C107.521 91.9647 107.391 94.0324 106.712 96.2467C105.556 100.016 103.367 102.558 100.206 103.801L100.052 103.862ZM93.4111 91.1087C93.4768 93.5184 94.1879 100.524 100.052 102.954C102.88 101.787 104.85 99.4485 105.906 95.999C106.515 94.0139 106.661 92.1484 106.69 91.1087C104.002 88.7781 100.819 88.1276 100.046 87.9995C99.2788 88.1242 96.1141 88.7579 93.4111 91.1087Z" fill="#F2BA49"/>
<path d="M100.052 98.83C97.5851 98.83 95.5781 96.823 95.5781 94.3559C95.5781 91.8889 97.5851 89.8818 100.052 89.8818C102.519 89.8818 104.526 91.8889 104.526 94.3559C104.526 96.823 102.518 98.83 100.052 98.83ZM100.052 90.229C97.7773 90.229 95.9253 92.081 95.9253 94.3559C95.9253 96.6309 97.7773 98.4829 100.052 98.4829C102.327 98.4829 104.179 96.6309 104.179 94.3559C104.179 92.081 102.327 90.229 100.052 90.229Z" fill="#F2BA49"/>
<path d="M102.388 93.0262H97.7168V93.3734H102.388V93.0262Z" fill="#F2BA49"/>
<path d="M102.388 94.1824H97.7168V94.5295H102.388V94.1824Z" fill="#F2BA49"/>
<path d="M102.388 95.3384H97.7168V95.6855H102.388V95.3384Z" fill="#F2BA49"/>
</g>
</g>
<defs>
<clipPath id="clip0">
<rect width="133.297" height="135.38" fill="white"/>
</clipPath>
<clipPath id="clip1">
<rect x="0.969971" y="70.1772" width="67.3014" height="48.6307" transform="rotate(-15.9764 0.969971 70.1772)" fill="white"/>
</clipPath>
<clipPath id="clip2">
<rect x="55.1367" y="30.0515" width="71.2679" height="86.8492" fill="white"/>
</clipPath>
</defs>
</svg>
