<svg width="134" height="136" viewBox="0 0 134 136" fill="none" xmlns="http://www.w3.org/2000/svg">
<g clip-path="url(#clip0)">
<path d="M31.1361 75.1251C38.9361 100.071 80.4296 137.884 100.871 130.504C121.312 123.124 112.956 73.3403 105.156 48.3943C97.3561 23.4483 74.4616 9.20761 54.0214 16.592C33.5838 23.9711 23.3361 50.1791 31.1361 75.1251Z" fill="#EEDFF2"/>
<path opacity="0.8" d="M7.18555 63.0908C7.18555 92.5789 49.8302 124.783 73.3548 124.783C96.8793 124.783 122.156 92.5789 122.156 63.0908C122.156 33.6027 112.23 13.6377 77.491 35.9938C56.5636 49.4623 7.18555 33.6027 7.18555 63.0908Z" fill="#B8A6FF"/>
<path opacity="0.8" d="M80.5253 22.9045C83.306 26.1596 94.3042 24.7972 98.6866 19.0048C103.069 13.2123 99.1752 5.18423 96.3944 1.92455C93.6136 -1.33057 87.8096 0.726736 83.4273 6.5192C79.0449 12.3117 77.7445 19.6494 80.5253 22.9045Z" fill="#B8A6FF"/>
<path opacity="0.8" d="M13.9888 99.2033C15.3406 96.0716 13.0264 86.8549 9.28317 84.3495C5.53996 81.8442 1.78206 87.0012 0.430245 90.1328C-0.921571 93.2645 1.01799 97.8317 4.76487 100.337C8.50441 102.838 12.637 102.33 13.9888 99.2033Z" fill="#B8A6FF"/>
<path opacity="0.8" d="M112.609 20.3262C111.771 22.2692 113.59 28.2491 116.205 30.0001C118.824 31.7511 121.249 28.6057 122.086 26.6581C122.924 24.7151 121.484 21.7206 118.865 19.9696C116.249 18.2232 113.446 18.3832 112.609 20.3262Z" fill="#EEDFF2"/>
<g clip-path="url(#clip1)">
<path d="M104.285 94.6475L44.9397 120.746C44.3731 120.996 43.7097 120.896 43.2397 120.491L12.627 94.0567L12.5786 94.0137V85.7126L20.5413 82.2402L71.508 60.0251L75.4961 63.0894L104.567 85.4145C104.868 85.6455 104.812 86.1128 104.465 86.2658L98.361 88.9514L104.412 93.5974C104.782 93.8821 104.712 94.4595 104.285 94.6475Z" fill="#33576E"/>
<path d="M20.5413 82.2427L19.1207 94.3304L12.5786 94.0162V85.7151L20.5413 82.2427Z" fill="#103B4B"/>
<path d="M71.5081 60.0288L12.5786 85.7163L22.252 94.0389L81.9898 68.0801L71.5081 60.0288Z" fill="#103B4B"/>
<path d="M104.138 86.4106V93.3878L44.2898 118.847L14.5337 94.0162V87.4312L45.2324 111.121L104.138 86.4106Z" fill="white"/>
<path opacity="0.1" d="M104.138 86.4106V88.116L45.0418 112.826L14.5337 89.0613V87.4312L45.2324 111.121L104.138 86.4106Z" fill="black"/>
<g opacity="0.1">
<path opacity="0.1" d="M104.138 89.5396V90.0928L44.5664 114.792L44.4482 114.703L14.5337 91.3684V90.7212L44.6443 114.209L104.138 89.5396Z" fill="black"/>
</g>
<g opacity="0.1">
<path opacity="0.1" d="M104.138 91.5831V92.1337L44.5664 116.836L44.4482 116.744L14.5337 93.4093V92.7648L44.6443 116.25L104.138 91.5831Z" fill="black"/>
</g>
<path d="M54.3716 92.9877C54.3716 92.9877 52.7818 97.4699 55.1827 100.883C57.5836 104.297 65.2186 101.684 64.6036 96.401C64.6036 96.401 64.1229 93.8524 61.1016 94.0163L56.4986 91.0406C56.4986 91.0433 54.4656 91.7711 54.3716 92.9877Z" fill="#CCCCCC"/>
<path d="M65.3848 93.4578L62.1514 93.6619C62.1514 93.6619 58.867 90.8017 56.8501 89.6845C56.8501 89.6845 62.0359 87.3508 65.3848 93.4578Z" fill="#CCCCCC"/>
<path d="M58.714 98.7054L53.2999 93.9761C53.2999 93.9761 53.1065 90.7937 57.0114 89.4966L63.36 93.9627C63.3627 93.9627 57.8681 93.0952 58.714 98.7054Z" fill="#E2E2E2"/>
<path d="M65.3849 93.4579L64.7995 93.4686C64.7995 93.4686 63.9831 89.0912 58.6683 90.0392C54.3231 90.8153 54.4117 96.036 54.8897 99.2158V99.2184C54.9085 99.3017 55.5826 101.987 58.3971 101.934C61.2545 101.877 64.0609 100.094 64.308 97.8166C64.5551 95.5392 63.0163 94.1642 61.7406 94.277C60.285 94.4059 58.2145 96.3395 59.0228 98.5256L58.7113 98.7028C58.7113 98.7028 57.296 95.0773 60.8785 93.7963C64.4611 92.5126 65.3608 97.1801 64.7592 98.4477C64.214 99.5998 61.7567 103.996 56.9496 102.374C56.912 102.363 56.877 102.35 56.8394 102.336C56.8368 102.336 56.8341 102.334 56.8314 102.334H56.8287C56.3748 102.173 55.8995 101.958 55.4027 101.681C55.4027 101.681 54.9703 101.319 54.2318 100.706C50.7539 97.8112 40.5166 89.3114 37.224 86.8568C30.6927 81.9825 16.4727 74.2615 16.4727 74.2615C16.8889 70.2492 18.1297 67.5878 19.6255 65.8234C22.7945 62.0824 27.1021 62.3778 27.1021 62.3778C30.4457 66.0597 34.4901 73.4907 41.6687 79.219C41.6687 79.219 53.0286 87.2086 58.295 87.6195C63.5641 88.033 65.3205 92.048 65.3849 93.4579Z" fill="white"/>
<path d="M52.9695 97.2122C53.7672 98.418 54.5325 100.263 55.126 101.216C54.7581 101.141 54.4627 100.897 54.2371 100.706C50.7593 97.811 40.5219 89.3112 37.2294 86.8566C30.6981 81.9823 16.478 74.2613 16.478 74.2613C16.8943 70.2491 18.135 67.5877 19.6309 65.8232C19.596 65.9253 17.9873 70.7969 20.3775 73.0743C22.7918 75.3758 35.0273 83.0216 36.6279 84.3617C38.2311 85.7018 51.8765 95.5605 52.9695 97.2122Z" fill="#E2E2E2"/>
<path d="M45.0309 81.4479L43.1751 80.2421C43.1617 80.1347 42.6165 78.9638 41.357 78.569C40.307 78.2387 39.085 78.3649 37.9839 78.9611C36.7835 79.6083 35.908 80.6933 35.5777 81.934C35.2635 83.1183 35.3924 84.0556 35.6582 84.872C35.6582 84.872 35.6582 84.8747 35.6609 84.8774C35.6636 84.8827 35.6663 84.8908 35.6663 84.8962C35.669 84.9042 35.6717 84.915 35.677 84.9284C35.6878 84.9606 35.7012 85.0009 35.72 85.0546C35.7361 85.1003 35.7522 85.1432 35.7683 85.1862C35.7979 85.2668 35.8328 85.3474 35.8704 85.4252C35.8704 85.4279 35.8731 85.4279 35.8731 85.4306C36.1712 86.0537 36.7137 86.6337 37.7288 87.2326L38.701 87.9873C38.5049 88.0249 38.3143 88.0463 38.1316 88.0544C36.3941 88.1108 35.2849 86.7868 34.7102 85.8066C34.0576 84.6948 33.9502 83.2848 34.3933 81.6171C34.8096 80.0514 35.9053 78.6871 37.4012 77.8788C38.7977 77.1241 40.3821 76.9496 41.7464 77.4034C44.6817 78.3783 45.0148 81.3083 45.0309 81.4479Z" fill="#F7BA34"/>
<path d="M35.4838 81.2706C35.0567 81.2544 31.262 81.0638 29.981 79.4014C29.5916 78.8965 29.4627 78.2923 29.605 77.6558C29.7715 76.9146 30.2388 76.4526 30.921 76.3587C31.9845 76.2136 33.3031 77.0381 33.9933 77.543C34.995 78.2761 35.892 79.2107 36.2733 79.9224L35.5187 80.3306L35.4838 81.2706ZM31.0982 77.4356C31.0902 77.4356 31.0794 77.4383 31.0714 77.4383C30.921 77.4597 30.7545 77.5134 30.6685 77.8948C30.596 78.2197 30.6524 78.4883 30.8431 78.7381C31.5789 79.6941 33.9181 80.0647 35.14 80.1587C34.2967 78.9449 32.0919 77.3335 31.0982 77.4356Z" fill="#F7BA34"/>
<path d="M36.4585 79.8743L35.9858 79.5332L35.3413 79.8152C35.1694 79.4231 33.687 75.9265 34.6242 74.0493C34.9089 73.4799 35.3977 73.0986 36.0342 72.9509C36.9956 72.7253 37.479 73.2006 37.6804 73.5041C38.6741 74.9946 37.3017 78.706 36.4585 79.8743ZM36.4343 73.9848C36.3913 73.9902 36.3403 73.9982 36.2839 74.0117C35.959 74.0869 35.7441 74.2534 35.6018 74.538C35.1372 75.4699 35.5857 77.2881 36.0019 78.5019C36.7002 77.049 37.2078 74.7636 36.7727 74.111C36.7378 74.052 36.676 73.9606 36.4343 73.9848Z" fill="#F7BA34"/>
<path d="M45.0308 81.4479L43.1751 80.2421C43.1616 80.1347 42.6165 78.9637 41.3569 78.569C41.3596 78.569 44.0049 78.6146 45.0308 81.4479Z" fill="#E59F38"/>
<path d="M35.6611 84.8773C35.664 84.8832 35.667 84.8919 35.667 84.8977C35.664 84.889 35.6611 84.8832 35.6611 84.8773Z" fill="#E59F38"/>
<path d="M35.6665 84.8962C35.6693 84.9046 35.672 84.9156 35.6776 84.9295C35.6748 84.9184 35.6693 84.9073 35.6665 84.8962Z" fill="#E59F38"/>
<path d="M38.7012 87.9899C38.5051 88.0275 38.3145 88.049 38.1319 88.057C38.1319 88.057 38.1319 88.057 38.1292 88.057C36.8965 87.4367 36.1929 86.1691 35.8706 85.4332C36.1687 86.0563 36.7112 86.6364 37.7263 87.2352L38.7012 87.9899Z" fill="#E59F38"/>
<path d="M92.4423 49.7582V78.7059C79.3206 85.9113 68.6804 87.1547 57.3285 84.0019C54.8014 83.3009 52.242 82.3825 49.6102 81.2626C47.8189 80.4999 45.9954 79.6459 44.1289 78.7059V49.7582H92.4423Z" fill="#103B4B"/>
<path d="M57.3287 49.7582V84.0019C54.8016 83.3009 52.2422 82.3825 49.6104 81.2626V49.7582H57.3287Z" fill="#18495A"/>
<path opacity="0.2" d="M92.4423 49.7582V66.6826L68.2856 76.2298L44.1289 66.4973V49.7582H92.4423Z" fill="black"/>
<path d="M112.96 52.9567V55.0326L68.2858 72.9024L23.6113 55.0326V52.9567L68.2858 35.9758L112.96 52.9567Z" fill="#33576E"/>
<path d="M112.96 52.9568V55.0327L68.2858 72.9025L23.6113 55.0327V52.9568L68.2858 70.1149L112.96 52.9568Z" fill="#21475F"/>
<path d="M112.96 52.9568V55.0327L68.2856 72.9025V70.1149L112.96 52.9568Z" fill="#103B4B"/>
<path d="M44.1289 74.1163V75.7277C45.4126 76.4716 47.1609 77.4062 49.2906 78.3434C49.3953 78.3891 49.5027 78.4374 49.6128 78.4831V76.9711C47.2469 75.9157 45.3643 74.8629 44.1289 74.1163Z" fill="#F7BA34"/>
<path d="M87.0767 77.0785C82.9409 78.9208 76.2458 81.1149 67.8426 81.1149C64.0533 81.1149 60.4761 80.5241 57.3286 79.6969V81.1257C60.4922 81.9313 64.0613 82.498 67.8426 82.498C76.4875 82.498 83.3813 80.2394 87.6406 78.3434C89.636 77.4545 91.25 76.5683 92.4451 75.8432V74.2076C91.2581 74.9703 89.4426 76.0258 87.0767 77.0785Z" fill="#F7BA34"/>
<path d="M49.8816 77.092C49.7903 77.0518 49.7017 77.0115 49.6104 76.9712V78.4832C51.7051 79.3909 54.3343 80.3631 57.3287 81.1258V79.697C54.4229 78.9343 51.8823 77.9729 49.8816 77.092Z" fill="#FFDC41"/>
<path d="M23.7617 71.0226H22.9561V53.8001C22.9561 53.1099 23.4985 52.5486 24.1914 52.5217L68.2723 50.8674L68.3019 51.6731L24.221 53.3274C23.9631 53.3382 23.7617 53.5449 23.7617 53.8001V71.0226Z" fill="#F7BA34"/>
<path d="M66.9429 49.0709L28.4956 52.3623L28.5643 53.1651L67.0117 49.8737L66.9429 49.0709Z" fill="#F7BA34"/>
<path d="M63.4785 51.0622V50.9667C63.4785 50.9985 63.4812 51.0303 63.4838 51.0622H63.4785Z" fill="#103B4B"/>
<path d="M73.0904 49.9111V50.9666C73.0904 50.9988 73.0877 51.031 73.085 51.0632C72.9588 52.065 70.8587 52.8599 68.2859 52.8599C65.7132 52.8599 63.613 52.065 63.4868 51.0632C63.4814 51.031 63.4814 50.9988 63.4814 50.9666V49.9111H73.0904Z" fill="#103B4B"/>
<path opacity="0.2" d="M73.0904 49.9111V50.9666C73.0904 50.9988 73.0877 51.031 73.085 51.0632C72.9588 52.065 70.8587 52.8599 68.2859 52.8599C65.7132 52.8599 63.613 52.065 63.4868 51.0632C63.4814 51.031 63.4814 50.9988 63.4814 50.9666V49.9111H73.0904Z" fill="black"/>
<path d="M73.085 51.0622C73.0903 51.0303 73.0903 50.9985 73.0903 50.9667V51.0622H73.085Z" fill="#103B4B"/>
<path d="M68.2862 51.8422C70.9411 51.8422 73.0933 50.9945 73.0933 49.9489C73.0933 48.9032 70.9411 48.0555 68.2862 48.0555C65.6312 48.0555 63.479 48.9032 63.479 49.9489C63.479 50.9945 65.6312 51.8422 68.2862 51.8422Z" fill="#103B4B"/>
<path d="M25.4644 77.7768L24.6184 74.8576L24.9864 77.9379C23.2918 78.6012 21.6026 78.373 19.9214 76.9093L21.9946 72.6635L22.478 71.6752H24.2344L24.7393 72.7118L26.7884 76.9093C26.4795 77.143 25.7786 77.5995 25.4644 77.7768Z" fill="#F7BA34"/>
<path d="M24.742 72.7145C24.3875 72.8622 23.9041 73.0045 23.3562 73.0045C22.7493 73.0045 22.29 72.83 21.9946 72.6661L22.478 71.6779H24.2344L24.742 72.7145Z" fill="#E59F38"/>
<path d="M23.3589 72.0914C24.0085 72.0914 24.5352 71.5648 24.5352 70.9152C24.5352 70.2655 24.0085 69.7389 23.3589 69.7389C22.7093 69.7389 22.1826 70.2655 22.1826 70.9152C22.1826 71.5648 22.7093 72.0914 23.3589 72.0914Z" fill="#F7BA34"/>
<path d="M24.1699 70.507C24.1699 70.7325 23.9873 70.9125 23.7644 70.9125C23.5388 70.9125 23.3589 70.7299 23.3589 70.507C23.3589 70.2814 23.5415 70.1014 23.7644 70.1014C23.99 70.1014 24.1699 70.2841 24.1699 70.507Z" fill="#FFDC41"/>
</g>
</g>
<defs>
<clipPath id="clip0">
<rect y="0.379883" width="133.297" height="135.38" fill="white"/>
</clipPath>
<clipPath id="clip1">
<rect x="10.1162" y="22.3977" width="102.844" height="98.4852" fill="white"/>
</clipPath>
</defs>
</svg>
