<svg width="134" height="136" viewBox="0 0 134 136" fill="none" xmlns="http://www.w3.org/2000/svg">
<g clip-path="url(#clip0)">
<path d="M31.1395 75.1253C38.9395 100.071 80.433 137.884 100.874 130.504C121.315 123.124 112.959 73.3406 105.159 48.3946C97.3595 23.4486 74.465 9.20786 54.0248 16.5922C33.5872 23.9713 23.3396 50.1793 31.1395 75.1253Z" fill="#EEDFF2"/>
<path opacity="0.8" d="M122.159 63.091C122.159 92.5791 79.5145 124.783 55.99 124.783C32.4654 124.783 7.18867 92.5791 7.18867 63.091C7.18867 33.603 17.1142 13.638 51.8537 35.994C72.7811 49.4625 122.159 33.603 122.159 63.091Z" fill="#B8A6FF"/>
<path opacity="0.8" d="M80.5287 22.905C83.3095 26.1601 94.3077 24.7977 98.69 19.0053C103.072 13.2128 99.1786 5.18472 96.3978 1.92503C93.6171 -1.33008 87.8131 0.727224 83.4307 6.51969C79.0483 12.3121 77.7479 19.6499 80.5287 22.905Z" fill="#B8A6FF"/>
<path opacity="0.8" d="M26.188 129.558C27.5399 126.427 25.2256 117.21 21.4824 114.705C17.7392 112.199 13.9813 117.356 12.6295 120.488C11.2776 123.619 13.2172 128.187 16.9641 130.692C20.7036 133.193 24.8362 132.685 26.188 129.558Z" fill="#B8A6FF"/>
<path opacity="0.8" d="M112.612 20.3266C111.775 22.2696 113.593 28.2495 116.209 30.0005C118.828 31.7515 121.252 28.6061 122.09 26.6585C122.927 24.7155 121.487 21.7209 118.868 19.9699C116.253 18.2235 113.45 18.3835 112.612 20.3266Z" fill="#EEDFF2"/>
<path d="M31.7919 78.0053L54.6353 80.9872C63.8138 80.1841 66.7351 79.5048 67.3344 70.268C67.7857 63.2997 67.9434 55.145 63.2995 49.4724C62.4697 48.4558 61.4798 47.5168 60.3127 46.6822C53.0072 41.4463 42.3171 43.5377 36.6372 50.0838C32.8861 54.4074 31.6415 60.8031 31.4158 67.1332C31.28 70.9352 31.5129 74.7153 31.7919 78.0053Z" fill="#EE4043"/>
<path d="M31.7919 78.0054L54.6353 80.9873C63.8138 80.1842 66.7351 79.5048 67.3344 70.268C67.7857 63.2997 67.9434 55.145 63.2995 49.4724C65.9999 54.5894 66.3663 61.4048 62.3096 65.726C56.865 71.5248 44.4837 72.226 37.4136 70.285C35.7686 69.8313 33.4709 68.0965 31.4158 67.1357C31.28 70.9352 31.5129 74.7154 31.7919 78.0054Z" fill="#DD222B"/>
<path d="M27.8563 88.5986C27.9509 88.914 28.0528 89.21 28.1547 89.4842C30.1054 94.7225 32.8447 94.1717 38.5658 94.2397C46.9583 94.3416 55.5546 95.3315 63.8743 93.8102C71.8325 92.3545 72.6113 89.1348 71.6602 82.2418C71.5728 81.6012 71.4685 80.9292 71.3545 80.2231C70.4252 74.4486 68.7923 74.5481 62.4792 74.4607C55.2659 74.3612 48.0744 73.9366 40.8732 74.6548C37.6633 74.9775 31.765 75.0746 29.1228 77.2121C28.2687 77.9012 27.7228 78.9008 27.4001 80.0557C26.6625 82.7125 27.1259 86.1893 27.8563 88.5986Z" fill="#3F3F3F"/>
<path d="M31.5177 77.2097C31.4594 78.9881 31.4618 80.7981 31.4837 82.579C31.5055 84.5006 31.7894 86.4052 32.4348 88.2177C32.7769 89.176 31.3138 89.7122 30.9572 88.7636C30.2633 86.922 30.0182 84.9446 29.9794 82.9866C29.9381 80.9146 30.2827 79.0512 30.9814 77.1102C31.0712 76.8554 31.5249 76.9331 31.5177 77.2097Z" fill="#4D4C4C"/>
<path d="M44.3259 57.7777C38.6703 59.4203 35.0576 53.9612 39.3448 49.5454C42.1326 46.6727 50.5542 44.9791 51.464 50.2805C52.0948 53.9685 47.2835 56.9188 44.3259 57.7777Z" fill="#F05E66"/>
<path d="M49.3941 30.8412C49.4063 31.8699 49.4863 32.906 49.4839 33.942C49.4815 34.864 49.5494 36.0237 48.9089 36.7516C48.5668 37.1398 47.9893 37.0064 47.7904 36.5551C47.4337 35.752 47.7176 34.7063 47.8171 33.8595C47.9384 32.7968 48.1446 31.8069 48.4722 30.7951C48.6202 30.339 49.3869 30.2662 49.3941 30.8412Z" fill="#DD222B"/>
<path d="M34.6983 42.6159C34.5769 42.5504 34.2664 42.4922 34.5575 42.4825C34.2712 42.4922 34.0116 42.3515 33.7544 42.2399C33.2546 42.0264 32.7961 41.7546 32.3399 41.4586C31.5368 40.9345 30.758 40.4032 30.3722 39.4958C30.1805 39.0469 30.627 38.5422 31.0928 38.6417C32.056 38.8455 32.83 39.3769 33.6331 39.9276C34.0577 40.2164 34.4362 40.5415 34.7929 40.9078C34.9409 41.0583 35.152 41.2354 35.2175 41.4441C35.1083 41.3227 35.1083 41.3203 35.2175 41.4368C35.3024 41.5241 35.3825 41.6163 35.465 41.7061C35.8798 42.1744 35.2175 42.8974 34.6983 42.6159Z" fill="#DD222B"/>
<path d="M28.2859 56.477C27.5847 57.1394 26.9393 57.1151 25.9979 57.0812C25.1415 57.0521 24.2656 56.955 23.4431 56.7245C22.8511 56.5595 22.7443 55.771 23.3412 55.5187C24.1394 55.1814 24.9376 55.2032 25.7917 55.2663C26.6918 55.3318 27.5192 55.3512 28.2398 55.9263C28.3902 56.0476 28.4363 56.3339 28.2859 56.477Z" fill="#DD222B"/>
<path d="M65.0338 39.8329C64.8616 38.826 65.4851 38.3699 66.1984 37.7609C66.9433 37.1252 67.7173 36.5041 68.564 36.0091C68.8552 35.8393 69.2482 35.735 69.5637 35.9242C69.5928 35.9291 69.6195 35.9363 69.6486 35.9412C69.9688 35.9727 70.1484 36.3221 70.1071 36.6108C70.095 36.5672 70.0805 36.5211 70.0683 36.4774C70.1605 36.7928 70.1557 37.2126 69.8961 37.4625C69.2385 38.086 68.5107 38.5664 67.7609 39.0735C66.9506 39.6218 66.3658 40.2988 65.3347 40.1653C65.1624 40.1411 65.0605 39.9906 65.0338 39.8329Z" fill="#DD222B"/>
<path d="M71.7572 52.1949C71.9804 52.1197 72.0799 51.9498 72.2886 51.8795C72.6452 51.7582 73.0092 51.6854 73.3804 51.6077C74.2077 51.433 75.0375 51.3433 75.877 51.2535C77.4735 51.0788 79.1331 51.2098 80.7077 51.5131C80.9673 51.564 80.9989 51.9353 80.7514 52.0275C79.3272 52.5612 77.8544 52.8985 76.3477 53.0635C75.5131 53.1557 74.6687 53.1921 73.8317 53.1727C73.4629 53.163 73.0601 53.1872 72.6937 53.129C72.371 53.0756 72.1308 52.9082 71.8179 52.8573C71.4782 52.8014 71.4369 52.3016 71.7572 52.1949Z" fill="#DD222B"/>
<path d="M72.8904 64.5107C74.038 64.3602 75.1299 64.5932 76.2557 64.8528C77.3353 65.1003 78.4951 65.4715 79.3055 66.2503C79.6136 66.5463 79.502 67.1674 79.0095 67.1796C77.9662 67.2063 76.9277 66.9248 75.9111 66.6967C74.7902 66.442 73.6887 66.3231 72.6502 65.8184C72.0194 65.5103 72.2232 64.598 72.8904 64.5107Z" fill="#DD222B"/>
<path d="M26.6965 69.8895C25.709 71.4617 23.7583 72.192 21.9944 72.5026C21.4388 72.5996 21.2277 71.816 21.6353 71.5175C22.9431 70.5616 24.5566 70.1588 25.8376 69.164C26.2792 68.8219 27.012 69.3873 26.6965 69.8895Z" fill="#DD222B"/>
<path d="M27.856 88.5985C27.9506 88.914 28.0525 89.21 28.1544 89.4841C30.1051 94.7224 32.8444 94.1717 38.5655 94.2396C46.958 94.3415 55.5543 95.3314 63.874 93.8102C71.8322 92.3544 72.611 89.1347 71.6599 82.2417C70.7889 85.1168 68.8745 88.0356 67.2465 88.829C62.5808 91.1 55.1103 91.4227 49.7919 91.6023C44.6652 91.777 38.978 92.4175 34.0939 91.6023C31.7259 91.2068 30.0299 91.1655 28.3072 89.159C28.1495 88.9819 27.9991 88.7926 27.856 88.5985Z" fill="#333333"/>
<path d="M94.9997 42.2931L69.4902 89.4853L91.1596 89.1338L82.5123 128.022L111.495 78.6685L88.345 79.0441L94.9997 42.2931Z" fill="#FFCF5C"/>
</g>
<defs>
<clipPath id="clip0">
<rect y="0.379883" width="133.297" height="135.38" fill="white"/>
</clipPath>
</defs>
</svg>
