<svg width="134" height="136" viewBox="0 0 134 136" fill="none" xmlns="http://www.w3.org/2000/svg">
<g clip-path="url(#clip0)">
<path d="M92.0446 74.7453C84.2446 99.6913 42.7511 137.504 22.3099 130.124C1.86866 122.744 10.2246 72.9606 18.0246 48.0146C25.8246 23.0686 48.7191 8.82785 69.1593 16.2122C89.5969 23.5913 99.8445 49.7993 92.0446 74.7453Z" fill="#EEDFF2"/>
<path opacity="0.8" d="M115.995 62.7109C115.995 92.199 73.35 124.403 49.8254 124.403C26.3009 124.403 1.02412 92.199 1.02412 62.7109C1.02412 33.2229 10.9497 13.2578 45.6892 35.6139C66.6166 49.0824 115.995 33.2229 115.995 62.7109Z" fill="#B8A6FF"/>
<path opacity="0.8" d="M42.6554 22.5249C39.8746 25.78 28.8764 24.4176 24.494 18.6251C20.1117 12.8327 24.0055 4.80459 26.7862 1.54491C29.567 -1.71021 35.371 0.347097 39.7534 6.13956C44.1358 11.932 45.4362 19.2697 42.6554 22.5249Z" fill="#B8A6FF"/>
<path opacity="0.8" d="M109.192 98.8235C107.84 95.6918 110.154 86.4751 113.897 83.9698C117.641 81.4644 121.399 86.6214 122.75 89.7531C124.102 92.8848 122.163 97.452 118.416 99.9573C114.676 102.458 110.544 101.951 109.192 98.8235Z" fill="#B8A6FF"/>
<path opacity="0.8" d="M10.5718 19.9464C11.4093 21.8894 9.59097 27.8693 6.9755 29.6203C4.35636 31.3713 1.93192 28.2259 1.09438 26.2784C0.256841 24.3353 1.69681 21.3408 4.31596 19.5898C6.93143 17.8434 9.73424 18.0034 10.5718 19.9464Z" fill="#EEDFF2"/>
<g clip-path="url(#clip1)">
<path d="M89.1377 38.1224L33.9194 38.4396L34.3421 112.219L89.5604 111.902L89.1377 38.1224Z" fill="#6188A3"/>
<path opacity="0.26" d="M38.4434 109.024L39.2696 109.02L88.0409 110.254L86.3653 40.4879L84.1023 41.1536L38.4434 109.024Z" fill="black"/>
<path d="M86.3656 40.4874L36.7173 40.7726L37.1084 109.033L86.7567 108.748L86.3656 40.4874Z" fill="#FFFFF1"/>
<path opacity="0.05" d="M36.4458 40.5136L72.1553 40.3077L36.5592 70.6134L36.4458 40.5136Z" fill="black"/>
<path opacity="0.12" d="M72.3207 40.2082L50.7583 40.332L50.7699 42.3587L72.3323 42.2349L72.3207 40.2082Z" fill="black"/>
<path d="M67.8654 34.1029L67.5306 34.1048L67.5297 33.8786C67.5177 31.7512 65.5286 30.0375 63.0885 30.0514L59.8738 30.0698C57.4328 30.0837 55.4639 31.8205 55.4759 33.9478L55.4768 34.174L55.1421 34.1759C52.7011 34.1897 50.7322 35.9265 50.7442 38.0539L50.7691 42.3585L72.3315 42.2347L72.3066 37.9302C72.2946 35.8019 70.3064 34.0882 67.8654 34.1029ZM64.3454 34.2119L58.6648 34.2442C58.0838 34.2479 57.6061 33.7742 57.6034 33.1935C57.5997 32.6118 58.0727 32.1335 58.6528 32.1307L64.3334 32.0984C64.9144 32.0947 65.3921 32.5684 65.3949 33.1491C65.3976 33.7299 64.9255 34.2082 64.3454 34.2119Z" fill="#C4D3D3"/>
<g opacity="0.47">
<path opacity="0.47" d="M50.6983 59.7726C48.2684 59.7864 45.8384 59.8003 43.4094 59.8141C43.2038 59.8151 43.0304 59.9905 43.0322 60.1964C43.0461 62.6294 43.0599 65.0624 43.0737 67.4944C43.0747 67.7003 43.2499 67.8739 43.4555 67.8721C45.8855 67.8582 48.3154 67.8444 50.7444 67.8305C50.856 67.8296 50.9399 67.789 51.0008 67.7271C51.0054 67.7234 51.0091 67.7188 51.0137 67.7151C51.0155 67.7123 51.0183 67.7105 51.0211 67.7077C51.0829 67.6468 51.1234 67.5609 51.1225 67.4482C51.1087 65.0153 51.0949 62.5823 51.081 60.1502C51.0792 59.9452 50.904 59.7717 50.6983 59.7726ZM50.3608 67.0734C48.1845 67.0863 46.0072 67.0983 43.8308 67.1112C43.8179 64.9322 43.8059 62.7522 43.793 60.5731C45.9694 60.5602 48.1466 60.5482 50.323 60.5353C50.3359 62.7143 50.3479 64.8943 50.3608 67.0734Z" fill="#8C9498"/>
<path opacity="0.47" d="M50.7759 73.2671C48.346 73.2809 45.9161 73.2948 43.487 73.3086C43.2814 73.3096 43.108 73.485 43.1099 73.6909C43.1237 76.1239 43.1375 78.5569 43.1514 80.9889C43.1523 81.1948 43.3275 81.3684 43.5332 81.3666C45.9631 81.3527 48.393 81.3389 50.8221 81.325C50.9336 81.3241 51.0176 81.2835 51.0784 81.2216C51.083 81.2179 51.0867 81.2133 51.0913 81.2096C51.0932 81.2068 51.0959 81.205 51.0987 81.2022C51.1605 81.1413 51.2011 81.0554 51.2002 80.9428C51.1863 78.5098 51.1725 76.0768 51.1587 73.6447C51.1568 73.4398 50.9816 73.2662 50.7759 73.2671ZM50.4384 80.5679C48.2621 80.5808 46.0848 80.5928 43.9085 80.6058C43.8956 78.4267 43.8836 76.2467 43.8707 74.0676C46.047 74.0547 48.2243 74.0427 50.4006 74.0298C50.4126 76.2088 50.4255 78.3879 50.4384 80.5679Z" fill="#8C9498"/>
<path opacity="0.47" d="M50.8531 86.7616C48.4232 86.7755 45.9932 86.7893 43.5642 86.8032C43.3586 86.8041 43.1852 86.9795 43.187 87.1854C43.2009 89.6184 43.2147 92.0514 43.2285 94.4834C43.2294 94.6893 43.4047 94.8629 43.6103 94.8611C46.0402 94.8472 48.4702 94.8334 50.8992 94.8195C51.0108 94.8186 51.0947 94.778 51.1556 94.7161C51.1602 94.7124 51.1639 94.7078 51.1685 94.7041C51.1703 94.7013 51.1731 94.6995 51.1759 94.6967C51.2376 94.6358 51.2782 94.5499 51.2773 94.4373C51.2635 92.0043 51.2496 89.5713 51.2358 87.1392C51.234 86.9343 51.0587 86.7607 50.8531 86.7616ZM50.5147 94.0624C48.3383 94.0753 46.1611 94.0873 43.9847 94.1002C43.9718 91.9212 43.9598 89.7412 43.9469 87.5621C46.1232 87.5492 48.3005 87.5372 50.4769 87.5243C50.4898 89.7033 50.5027 91.8824 50.5147 94.0624Z" fill="#8C9498"/>
</g>
<path d="M45.8799 62.562L47.5518 61.9932L48.4924 63.6654L56.4637 57.8419L57.3961 58.0229L48.1318 65.718L45.8799 62.562Z" fill="#6BAC8F"/>
<path d="M45.3516 76.4018L47.0244 75.8331L47.9641 77.5052L55.9354 71.6818L56.8677 71.8627L47.6035 79.5578L45.3516 76.4018Z" fill="#6BAC8F"/>
<path d="M45.2729 89.1752L46.9449 88.6065L47.8855 90.2786L55.8568 84.4542L56.7891 84.6352L47.5249 92.3303L45.2729 89.1752Z" fill="#6BAC8F"/>
<path opacity="0.32" d="M81.2677 89.5529L55.5527 89.7006L55.5736 93.3496L81.2886 93.2019L81.2677 89.5529Z" fill="#8C9498"/>
<path opacity="0.32" d="M81.1857 75.2606L55.4707 75.4083L55.4916 79.0573L81.2066 78.9096L81.1857 75.2606Z" fill="#8C9498"/>
<path opacity="0.32" d="M81.1036 60.9671L55.3887 61.1147L55.4096 64.7638L81.1245 64.6161L81.1036 60.9671Z" fill="#8C9498"/>
</g>
</g>
<defs>
<clipPath id="clip0">
<rect width="133.297" height="135.38" fill="white"/>
</clipPath>
<clipPath id="clip1">
<rect x="33.9194" y="30.0515" width="55.6397" height="82.1655" fill="white"/>
</clipPath>
</defs>
</svg>
