<svg width="134" height="136" viewBox="0 0 134 136" fill="none" xmlns="http://www.w3.org/2000/svg">
<g clip-path="url(#clip0)">
<path d="M92.0446 79.5057C84.2446 104.452 42.7511 142.264 22.3099 134.885C1.86866 127.505 10.2246 77.7209 18.0246 52.7749C25.8246 27.8289 48.7191 13.5882 69.1593 20.9726C89.5969 28.3517 99.8445 54.5597 92.0446 79.5057Z" fill="#EEDFF2"/>
<path opacity="0.8" d="M119.268 65.6863C119.268 95.1743 76.6234 127.378 53.0989 127.378C29.5743 127.378 4.29756 95.1743 4.29756 65.6863C4.29756 36.1982 14.2231 16.2332 48.9626 38.5892C69.89 52.0577 119.268 36.1982 119.268 65.6863Z" fill="#B8A6FF"/>
<path opacity="0.8" d="M34.027 25.5001C31.2462 28.7552 20.248 27.3928 15.8656 21.6003C11.4832 15.8079 15.377 7.77981 18.1578 4.52013C20.9386 1.26501 26.7426 3.32232 31.125 9.11478C35.5074 14.9072 36.8078 22.245 34.027 25.5001Z" fill="#B8A6FF"/>
<path opacity="0.8" d="M104.035 22.694C104.873 24.637 103.054 30.6169 100.439 32.3679C97.8197 34.1189 95.3953 30.9735 94.5578 29.0259C93.7202 27.0829 95.1602 24.0884 97.7793 22.3374C100.395 20.591 103.198 20.751 104.035 22.694Z" fill="#EEDFF2"/>
<path d="M77.7208 81.7576V81.623H57.2693V81.7576L53.1655 76.2814L57.2693 75.205V65.8269H77.7208V75.205L81.838 76.2814L77.7208 81.7576Z" fill="#D6B095"/>
<path d="M108.304 112.852H26.6997C26.6997 112.852 28.6238 91.1223 28.8929 89.2117C29.1485 87.4625 29.5925 83.5471 33.1715 81.9998C33.3868 81.9056 33.6021 81.8249 33.8443 81.7442C33.9788 81.7038 34.1134 81.65 34.2614 81.6231L55.2108 75.3934V75.528C55.2108 78.8917 60.7138 81.6231 67.4951 81.6231C74.2764 81.6231 79.7795 78.8917 79.7795 75.528V75.3934L100.742 81.6231C100.89 81.65 101.025 81.7038 101.159 81.7442C101.402 81.8249 101.63 81.8922 101.832 81.9998C105.398 83.5471 105.855 87.4625 106.111 89.2117C106.38 91.1223 108.304 112.852 108.304 112.852Z" fill="#FAFAFA"/>
<path d="M52.8832 59.7586C52.4392 59.8393 51.9817 59.7452 51.5646 59.4761C50.3806 58.7764 49.358 56.9196 49.0082 54.6188C48.5372 51.4838 49.506 48.6986 51.1744 48.4026C51.3224 48.3757 51.4839 48.3623 51.6319 48.3892C51.7261 48.3892 51.8068 48.4026 51.901 48.4295C52.2643 48.5103 52.6141 48.7121 52.9505 49.0081C53.9327 49.8692 54.7534 51.5242 55.0494 53.5424C55.5204 56.6774 54.5516 59.4626 52.8832 59.7586Z" fill="#D6B095"/>
<path d="M85.9955 54.6324C85.6053 57.2427 84.3405 59.2744 82.9547 59.7049C82.6721 59.7991 82.3896 59.826 82.107 59.7722C80.4386 59.4762 79.4698 56.691 79.9408 53.556C80.2368 51.6454 80.9768 50.0443 81.9052 49.1697C82.2416 48.8468 82.5914 48.6046 82.9547 48.4835C83.2372 48.3893 83.5332 48.3624 83.8292 48.4162C83.8427 48.4162 83.8696 48.4297 83.8831 48.4431C85.5246 48.7795 86.4664 51.5243 85.9955 54.6324Z" fill="#D6B095"/>
<path d="M83.8432 53.435C83.8432 60.2432 81.1926 66.2845 77.1023 70.0115C74.3978 72.4872 71.0879 73.9404 67.4954 73.9404C63.6742 73.9404 60.149 72.2989 57.3639 69.5137C53.583 65.7597 51.1611 59.9472 51.1611 53.435C51.1611 42.1194 58.4806 32.9431 67.4954 32.9431C76.5237 32.9431 83.8432 42.1194 83.8432 53.435Z" fill="#F9CCAB"/>
<path d="M92.3466 90.1937H42.644V112.852H92.3466V90.1937Z" fill="#FFA26B"/>
<path d="M51.0936 97.2444H43.8145V76.8736L51.0936 74.6132V97.2444Z" fill="#F87011"/>
<path d="M84.1118 97.2444H91.4044V76.8736L84.1118 74.6132V97.2444Z" fill="#F87011"/>
<path d="M49.8287 93.7056C49.8287 95.0107 48.7658 96.0737 47.4606 96.0737C46.1555 96.0737 45.0791 95.0107 45.0791 93.7056C45.0791 92.4005 46.142 91.3375 47.4606 91.3375C48.7658 91.3241 49.8287 92.387 49.8287 93.7056Z" fill="#EAF1F2"/>
<path d="M90.1261 93.7056C90.1261 95.0107 89.0631 96.0737 87.7445 96.0737C86.4394 96.0737 85.3765 95.0107 85.3765 93.7056C85.3765 92.4005 86.4394 91.3375 87.7445 91.3375C89.0631 91.3241 90.1261 92.387 90.1261 93.7056Z" fill="#EAF1F2"/>
<path d="M84.4617 42.227V49.0083C84.4617 48.6988 83.4795 48.4298 81.7842 48.1876C81.7034 48.1741 81.6093 48.1607 81.542 48.1472L79.9005 50.6229C79.887 50.6364 79.887 50.6498 79.8736 50.6633C78.8375 52.251 78.7164 52.6277 77.344 52.6277H77.1153C76.1869 52.1299 72.2177 51.7531 67.495 51.7531C62.7723 51.7531 58.8435 52.1164 57.8882 52.6277H57.6729C56.2736 52.6277 56.1659 52.251 55.1299 50.6633C55.1165 50.6498 55.1165 50.6364 55.103 50.6229L53.448 48.1472C53.3673 48.1607 53.2866 48.1741 53.2059 48.1876C51.5105 48.4163 50.5283 48.6988 50.5283 49.0083V42.227C50.5283 34.7864 58.1169 29.7543 67.4816 29.7543C76.8597 29.7543 84.4617 34.7999 84.4617 42.227Z" fill="#FFA26B"/>
<path opacity="0.31" d="M81.7844 48.1876C81.7036 48.1741 81.6095 48.1607 81.5422 48.1472L79.9007 50.6229C79.8872 50.6364 79.8872 50.6498 79.8738 50.6633C78.8377 52.251 78.7166 52.6277 77.3442 52.6277H77.1155C76.1871 52.1299 72.2179 51.7531 67.4952 51.7531C62.7725 51.7531 58.8437 52.1164 57.8884 52.6277H57.6731C56.2738 52.6277 56.1661 52.251 55.1301 50.6633C55.1167 50.6498 55.1167 50.6364 55.1032 50.6229L53.4482 48.1472C53.3675 48.1607 53.2868 48.1741 53.2061 48.1876C56.22 47.6225 61.4943 47.2457 67.4952 47.2457C73.4961 47.2457 78.7705 47.6225 81.7844 48.1876Z" fill="#737272"/>
<path opacity="0.9" d="M42.6437 112.852V96.0737L40.5312 112.852H42.6437Z" fill="#C6B0B1"/>
<path opacity="0.9" d="M92.3467 112.852V96.0737L94.4591 112.852H92.3467Z" fill="#C6B0B1"/>
<path d="M67.3583 86.6764V108.652C67.3583 110.945 65.4984 112.805 63.206 112.805H19.0293C16.734 112.802 14.877 110.945 14.877 108.649V86.6764C14.877 84.384 16.734 82.524 19.0293 82.524H37.4843H44.751H63.206C65.4984 82.524 67.3583 84.3811 67.3583 86.6764Z" fill="white"/>
<path d="M67.2142 86.6764V108.652C67.2142 110.865 65.4188 112.66 63.206 112.66H19.0295C16.8136 112.658 15.0211 110.865 15.0211 108.649V86.6764C15.0211 84.4635 16.8137 82.6682 19.0293 82.6682H37.4843H44.751H63.206C65.4189 82.6682 67.2142 84.4608 67.2142 86.6764Z" stroke="black" stroke-opacity="0.4" stroke-width="0.288359"/>
<path d="M35.2119 88.4844V106.446H31.2441H24.3811H20.8833V88.4844H35.2119Z" fill="#EEDFF2"/>
<path d="M31.2443 102.611V106.446H24.3813V102.611C24.3813 100.717 25.9183 99.1796 27.8128 99.1796C28.7615 99.1796 29.618 99.5631 30.2379 100.186C30.8608 100.806 31.2443 101.665 31.2443 102.611Z" fill="#0084F4"/>
<path d="M27.8128 92.3193C29.7073 92.3193 31.2443 93.8534 31.2443 95.7508C31.2443 97.6453 29.7102 99.1794 27.8128 99.1794C25.9183 99.1794 24.3813 97.6453 24.3813 95.7508C24.3813 93.8534 25.9183 92.3193 27.8128 92.3193Z" fill="#FFCF5C"/>
<path d="M18.4129 108.649V86.6763C18.4129 84.3838 20.27 82.5239 22.5653 82.5239H19.3184C17.023 82.5239 15.166 84.381 15.166 86.6763V108.652C15.166 110.945 17.023 112.805 19.3184 112.805H22.5624C20.27 112.802 18.4129 110.945 18.4129 108.649Z" fill="#BDBDBD"/>
<path d="M35.2119 107.455H20.8833C20.3267 107.455 19.874 107.003 19.874 106.446V88.4842C19.874 87.9277 20.3267 87.475 20.8833 87.475H35.2119C35.7684 87.475 36.2211 87.9277 36.2211 88.4842V106.446C36.2211 107.003 35.7684 107.455 35.2119 107.455ZM21.8925 105.437H34.2026V89.4935H21.8925V105.437Z" fill="#828282"/>
<path d="M60.9105 91.1084H44.5635C44.0061 91.1084 43.5542 91.5603 43.5542 92.1177C43.5542 92.6751 44.0061 93.1269 44.5635 93.1269H60.9105C61.4679 93.1269 61.9198 92.6751 61.9198 92.1177C61.9198 91.5603 61.4679 91.1084 60.9105 91.1084Z" fill="#BDBDBD"/>
<path d="M60.9134 94.6752H50.8208C50.2634 94.6752 49.8115 95.127 49.8115 95.6844C49.8115 96.2418 50.2634 96.6937 50.8208 96.6937H60.9134C61.4708 96.6937 61.9226 96.2418 61.9226 95.6844C61.9226 95.127 61.4708 94.6752 60.9134 94.6752Z" fill="#BDBDBD"/>
<path d="M60.9105 98.2396H44.5635C44.0061 98.2396 43.5542 98.6915 43.5542 99.2489C43.5542 99.8063 44.0061 100.258 44.5635 100.258H60.9105C61.4679 100.258 61.9198 99.8063 61.9198 99.2489C61.9198 98.6915 61.4679 98.2396 60.9105 98.2396Z" fill="#BDBDBD"/>
<path d="M60.9134 101.803H50.8208C50.2634 101.803 49.8115 102.255 49.8115 102.813C49.8115 103.37 50.2634 103.822 50.8208 103.822H60.9134C61.4708 103.822 61.9226 103.37 61.9226 102.813C61.9226 102.255 61.4708 101.803 60.9134 101.803Z" fill="#BDBDBD"/>
<path opacity="0.8" d="M95.9634 119.846C94.3878 116.196 97.0852 105.454 101.448 102.533C105.811 99.6134 110.191 105.624 111.767 109.274C113.342 112.924 111.082 118.248 106.714 121.168C102.356 124.083 97.539 123.491 95.9634 119.846Z" fill="#B8A6FF"/>
</g>
<defs>
<clipPath id="clip0">
<rect width="133.297" height="135.38" fill="white"/>
</clipPath>
</defs>
</svg>
