<svg width="134" height="136" viewBox="0 0 134 136" fill="none" xmlns="http://www.w3.org/2000/svg">
<g clip-path="url(#clip0)">
<path d="M31.7313 60.7172C39.5313 35.7712 81.0248 -2.04158 101.466 5.33834C121.907 12.7182 113.551 62.502 105.751 87.448C97.9513 112.394 75.0568 126.635 54.6166 119.25C34.179 111.871 23.9314 85.6632 31.7313 60.7172Z" fill="#EEDFF2"/>
<path opacity="0.8" d="M7.78076 72.7515C7.78076 43.2634 50.4254 11.0597 73.95 11.0597C97.4745 11.0597 122.751 43.2634 122.751 72.7515C122.751 102.24 112.826 122.205 78.0862 99.8485C57.1588 86.38 7.78076 102.24 7.78076 72.7515Z" fill="#B8A6FF"/>
<path opacity="0.8" d="M81.1205 112.938C83.9013 109.683 94.8995 111.045 99.2818 116.838C103.664 122.63 99.7704 130.658 96.9896 133.918C94.2089 137.173 88.4049 135.116 84.0225 129.323C79.6401 123.531 78.3397 116.193 81.1205 112.938Z" fill="#B8A6FF"/>
<path opacity="0.8" d="M14.584 36.639C15.9358 39.7707 13.6216 48.9874 9.87839 51.4928C6.13518 53.9981 2.37728 48.8411 1.02546 45.7094C-0.326356 42.5778 1.61321 38.0106 5.36009 35.5052C9.09962 33.0044 13.2322 33.5119 14.584 36.639Z" fill="#B8A6FF"/>
<path opacity="0.8" d="M113.204 115.516C112.367 113.573 114.185 107.593 116.8 105.842C119.42 104.091 121.844 107.237 122.681 109.184C123.519 111.127 122.079 114.122 119.46 115.873C116.844 117.619 114.042 117.459 113.204 115.516Z" fill="#EEDFF2"/>
<g clip-path="url(#clip1)">
<path d="M26.5328 56.3574C26.5328 56.3574 26.111 39.2355 37.484 29.9559C48.8569 20.6919 69.4939 21.6761 80.0233 29.6747C90.5527 37.6732 91.8805 53.4048 92.3024 55.2951C92.7242 57.1854 94.6926 59.5756 94.8956 60.841C95.0987 62.1064 95.0362 64.6372 91.3806 64.6372C87.725 64.6372 63.5731 64.6372 60.1362 64.6372C56.6993 64.6372 55.0121 64.9184 53.2624 62.1845C51.4971 59.4506 48.1383 56.3574 42.6549 56.3574C37.2028 56.3574 26.5328 56.3574 26.5328 56.3574Z" fill="#FFCF5C"/>
<path d="M28.6108 43.5474C28.6108 43.5474 27.3454 43.5474 26.5174 43.5474C25.6895 43.5474 24.3772 44.5941 23.5336 46.9686C22.69 49.3432 18.9563 54.0299 16.3161 55.6077C13.6916 57.1856 11.6763 58.0292 11.1608 58.7165C10.6453 59.4039 9.22363 60.56 9.22363 61.9191C9.22363 61.9191 50.9194 61.9191 52.919 61.9191C54.9187 61.9191 56.2309 61.2942 55.7154 60.1225C55.1842 58.9665 50.9818 54.233 49.4509 53.4831C47.9199 52.7489 36.6094 51.3741 34.0786 49.5307C31.5478 47.6873 30.1106 44.6097 29.8918 44.1879C29.6731 43.7817 29.267 43.5474 28.6108 43.5474Z" fill="#575A70"/>
<path d="M72.306 44.0784H67.8849V39.6573H62.3234V44.0784H57.8867V49.64H62.3234V54.0767H67.8849V49.64H72.306V44.0784Z" fill="white"/>
<path d="M30.6105 21.895C30.6105 21.895 35.719 27.4253 36.1408 28.0033C36.5626 28.5813 36.7657 29.05 36.7657 30.1592C36.7657 31.2684 31.7197 41.954 31.376 42.5788C31.0323 43.2037 30.1887 43.4693 29.5482 43.5318C28.9233 43.5787 26.705 43.5318 26.705 43.5318C26.705 43.5318 26.1894 29.6905 30.6105 21.895Z" fill="#333642"/>
<path d="M26.7206 43.5318C27.1424 27.894 30.6105 21.895 30.6105 21.895L24.5022 21.2076C24.5022 21.2076 21.0341 27.2066 20.6123 42.8444L26.7206 43.5318Z" fill="#454859"/>
</g>
<g clip-path="url(#clip2)">
<path d="M83.8209 87.3633L105.854 78.7809C95.926 64.6964 97.8229 55.4662 97.8229 55.4662L75.542 64.1005" fill="#EDE3C3"/>
<path d="M99.7812 80.9793C100.204 80.8934 105.64 79.4859 107.328 78.1195C109.017 76.7532 114.138 72.5139 110.853 66.1263C107.568 59.7388 100.702 61.3237 100.702 61.3237C100.702 61.3237 97.2441 61.1868 95.1817 65.5373C93.1197 69.8943 99.7812 80.9793 99.7812 80.9793Z" fill="#EDE3C3"/>
<path d="M90.9025 62.9334C91.4595 63.08 110.165 56.3414 110.165 56.3414C111.269 56.7454 123.097 74.4777 99.128 81.1258L90.0565 79.4093C90.0565 79.4093 82.8117 69.894 86.0022 64.9099C89.1927 59.9259 94.9564 54.882 100.594 55.3038C106.234 55.7221 107.854 59.4503 107.854 59.4503L90.9025 62.9334Z" fill="#EDE3C3"/>
<path d="M92.7191 67.7563C92.9229 67.5901 94.0058 63.8409 94.0058 63.8409C94.0058 63.8409 99.2776 61.4874 100.701 61.3237C102.132 61.1597 104.022 62.8327 104.022 62.8327L92.7191 67.7563Z" fill="#B8AD8F"/>
<path d="M99.2702 60.9262L77.2506 69.735L83.5622 79.5144L105.805 71.2435C98.7035 73.6282 98.2876 69.1949 96.4089 67.0399C94.5267 64.8818 99.2702 60.9262 99.2702 60.9262Z" fill="#E3D2A1"/>
<path d="M96.0988 55.5279L73.641 64.8815L32.6187 81.6535C32.3035 81.7463 31.989 81.8523 31.6754 81.9717C31.2248 82.1463 30.7957 82.3462 30.3847 82.5685L30.2152 82.639L30.2195 82.6554C25.2141 85.4338 22.8943 91.548 25.0188 97.0403C27.3444 103.038 34.0893 106.017 40.0848 103.692C40.6106 103.49 80.4113 88.8948 80.4113 88.8948L105.229 79.4876C105.229 79.4876 100.028 81.0846 95.4792 78.4373C90.9338 75.7932 89.4319 70.5369 89.1814 68.7206C88.9309 66.9043 88.3536 60.9098 96.0988 55.5279Z" fill="#FFF1C9"/>
<path d="M80.415 88.8978C80.2157 88.9735 80.0164 89.0491 79.8163 89.1114C77.3459 89.9305 74.7815 89.9163 72.44 89.2234C68.8868 88.1699 65.8401 85.548 64.3978 81.8256C62.9555 78.1033 63.4388 74.1131 65.3588 70.9412C66.7257 68.6787 68.8201 66.8398 71.4715 65.8092L57.3873 71.27C51.0097 73.7409 47.8447 80.9093 50.3136 87.2865C52.7825 93.6636 59.9497 96.8265 66.3273 94.3555L80.415 88.8978Z" fill="#9E0826"/>
<path d="M109.978 56.1693C115.23 60.8193 116.742 70.44 108.129 77.4424C103.466 81.2361 96.0447 81.0433 91.1961 74.116C87.3139 68.5737 88.662 60.9311 94.2057 57.0537C98.6396 53.9458 104.755 55.0237 107.854 59.4573C110.339 63.0058 109.476 67.8948 105.926 70.3806C103.089 72.3684 99.1767 71.6777 97.1898 68.8408C95.6017 66.5712 96.1539 63.4425 98.4204 61.8505C100.235 60.5767 102.742 61.0189 104.012 62.8366" stroke="#FFFAE8" stroke-width="0.550089" stroke-miterlimit="10"/>
<path d="M61.7563 88.8718C61.7563 88.8718 67.6867 96.8829 74.7199 100.759C74.7199 100.759 73.2745 98.1434 72.7836 95.7802C72.7836 95.7802 75.9743 96.311 79.1583 96.2372C79.1583 96.2372 66.2846 87.6499 63.8928 84.089L61.7563 88.8718Z" fill="#BF0D32"/>
<path d="M56.8548 89.6117C56.8548 89.6117 58.8076 99.3826 63.4193 105.766C63.4193 105.766 63.2141 102.767 63.7481 100.385C63.7481 100.385 66.3415 102.145 69.1745 103.337C69.1745 103.337 61.3406 90.2808 60.692 86.0321L56.8548 89.6117Z" fill="#BF0D32"/>
<path opacity="0.5" d="M65.6371 77.4651C65.0408 76.8364 64.8281 75.753 64.1232 75.318C63.394 74.8678 62.3261 75.1702 61.5264 74.9349C60.713 74.6936 59.9839 73.859 59.1434 73.8334C58.2998 73.8113 57.5255 74.6005 56.7019 74.7977C55.8881 74.9911 54.8366 74.6273 54.0858 75.034C53.3578 75.4294 53.0851 76.4988 52.4526 77.0922C51.8236 77.6887 50.7403 77.9018 50.3051 78.6068C49.8547 79.3362 50.1567 80.404 49.9211 81.2038C49.6797 82.0174 48.8449 82.7467 48.819 83.5873C48.7966 84.4309 49.5855 85.205 49.7825 86.0286C49.9756 86.8424 49.6115 87.894 50.018 88.6447C50.4131 89.3726 51.4824 89.645 52.0756 90.2773C52.6719 90.9061 52.8846 91.9895 53.5895 92.4245C54.3187 92.8747 55.3866 92.5723 56.1863 92.8076C56.9997 93.0488 57.7288 93.8835 58.5693 93.9091C59.4128 93.9312 60.1872 93.142 61.0108 92.9448C61.8246 92.7514 62.8726 93.112 63.6269 92.7084C64.3549 92.3131 64.6276 91.2437 65.2601 90.6503C65.8891 90.0538 66.9724 89.8407 67.4076 89.1357C67.858 88.4063 67.556 87.3385 67.7916 86.5387C68.033 85.7251 68.8678 84.9957 68.8937 84.1552C68.9161 83.3116 68.1272 82.5375 67.9302 81.7139C67.7371 80.9001 68.1012 79.8485 67.6947 79.0978C67.3027 78.3663 66.2334 78.0939 65.6371 77.4651Z" fill="#11182E"/>
<path d="M64.7855 77.4171C64.1998 76.7977 63.9878 75.7277 63.2967 75.2985C62.5781 74.8577 61.5266 75.1557 60.7336 74.92C59.9304 74.6815 59.2154 73.8594 58.3816 73.8333C57.5513 73.8104 56.7863 74.589 55.9725 74.7823C55.1685 74.9717 54.1374 74.6134 53.3964 75.0162C52.6813 75.404 52.4078 76.4602 51.7882 77.0461C51.1655 77.6355 50.0986 77.8443 49.6693 78.5356C49.2282 79.2543 49.5259 80.3057 49.2899 81.0989C49.0512 81.9022 48.2289 82.6175 48.2026 83.4513C48.1794 84.2816 48.9578 85.0464 49.1508 85.8602C49.3399 86.6642 48.9813 87.6954 49.3839 88.4363C49.7715 89.1513 50.8275 89.4245 51.4132 90.0439C52.0024 90.6665 52.2108 91.7334 52.902 92.1625C53.6206 92.6033 54.672 92.3053 55.4651 92.5411C56.2683 92.7795 56.9833 93.6016 57.8171 93.6277C58.6474 93.6506 59.4123 92.872 60.2261 92.6787C61.0302 92.4893 62.0613 92.8476 62.8022 92.4448C63.5174 92.057 63.7909 91.0008 64.4105 90.4149C65.03 89.829 66.1 89.6167 66.5294 88.9255C66.9704 88.2067 66.6727 87.1553 66.9087 86.3621C67.1475 85.5588 67.9697 84.8436 67.9961 84.0097C68.0192 83.1794 67.2409 82.4146 67.0478 81.6009C66.8587 80.7968 67.2173 79.7656 66.8148 79.0247C66.4272 78.3097 65.3747 78.0396 64.7855 77.4171Z" fill="#FFA26B"/>
<path opacity="0.25" d="M64.0525 87.8733C66.3384 84.5842 65.5257 80.0654 62.2374 77.7805C58.949 75.4955 54.4302 76.3096 52.1443 79.5988C49.8585 82.8879 50.6711 87.4066 53.9594 89.6916C57.2478 91.9766 61.7666 91.1625 64.0525 87.8733Z" fill="#11182E"/>
<path d="M63.005 78.7587C60.3513 75.9491 55.9186 75.8248 53.1083 78.4795C50.298 81.1341 50.1724 85.5671 52.826 88.3767C55.4797 91.1863 59.9124 91.3105 62.7227 88.6559C65.5331 86.0012 65.6587 81.5683 63.005 78.7587Z" fill="#FFCF5C"/>
</g>
</g>
<defs>
<clipPath id="clip0">
<rect y="0.379883" width="133.297" height="135.38" fill="white"/>
</clipPath>
<clipPath id="clip1">
<rect x="9.22363" y="21.2075" width="85.9222" height="43.7422" fill="white"/>
</clipPath>
<clipPath id="clip2">
<rect x="14.2817" y="99.6598" width="96.4376" height="70.4576" transform="rotate(-48.4788 14.2817 99.6598)" fill="white"/>
</clipPath>
</defs>
</svg>
