<svg width="134" height="136" viewBox="0 0 134 136" fill="none" xmlns="http://www.w3.org/2000/svg">
<g clip-path="url(#clip0)">
<path d="M33.9712 98.9493C51.7287 118.128 105.44 134.456 120.731 119.012C136.021 103.569 107.095 62.1985 89.3373 43.0201C71.5798 23.8416 44.7883 20.8136 29.5004 36.2607C14.2127 51.7019 16.2137 79.7709 33.9712 98.9493Z" fill="#EEDFF2"/>
<path opacity="0.8" d="M4.05856 92.6299C14.2589 120.298 65.4107 135.762 87.483 127.624C109.555 119.487 122.132 80.5275 111.931 52.8598C101.731 25.1922 85.512 9.89312 60.6505 42.886C45.674 62.7621 -6.14183 64.9623 4.05856 92.6299Z" fill="#B8A6FF"/>
<path opacity="0.8" d="M78.7104 14.125C79.2995 9.88453 70.9808 2.56229 63.7394 3.12889C56.4981 3.69548 53.0776 11.9364 52.4851 16.1798C51.8959 20.4203 57.287 23.3961 64.5283 22.8295C71.7696 22.2629 78.1212 18.3654 78.7104 14.125Z" fill="#B8A6FF"/>
<path opacity="0.8" d="M10.1863 57.7271C13.3518 56.4564 18.2014 48.2842 17.3092 43.8692C16.417 39.4542 10.1171 40.4675 6.95161 41.7382C3.78613 43.0088 1.94569 47.6169 2.84047 52.0345C3.73326 56.4437 7.02404 58.9945 10.1863 57.7271Z" fill="#B8A6FF"/>
<path opacity="0.8" d="M115.949 47.9849C115.111 49.9279 116.93 55.9078 119.545 57.6588C122.164 59.4098 124.589 56.2644 125.426 54.3168C126.264 52.3738 124.824 49.3793 122.205 47.6283C119.589 45.8818 116.786 46.0419 115.949 47.9849Z" fill="#EEDFF2"/>
<g clip-path="url(#clip1)">
<path opacity="0.17" d="M102.75 32.6914L102.704 32.6359H98.4462H41.8181L41.9561 32.7853H41.3965C37.8551 32.7853 34.9863 35.656 34.9863 39.1955V104.008H29.611L29.565 104.064C26.9223 107.235 26.9223 111.842 29.565 115.014L29.611 115.07C29.611 115.07 31.6519 115.07 34.9863 115.07H90.4991H90.5796C94.4334 115.07 97.5589 111.944 97.5589 108.09V43.8446C97.5589 43.8446 97.557 43.7909 97.557 43.6951H102.704L102.75 43.6395C105.395 40.4699 105.395 35.863 102.75 32.6914Z" fill="black"/>
<path d="M39.8232 42.1104H100.711L100.757 42.0548C103.4 38.8832 103.4 34.2763 100.757 31.1048L100.711 31.0492H96.4533H39.8232L40.1241 31.3731C42.9488 34.4143 42.8396 39.1515 39.8769 42.0567L39.8232 42.1104Z" fill="#F2F2F2"/>
<path d="M88.5845 113.483H32.9912V37.6089C32.9912 34.0675 35.8619 31.1987 39.4014 31.1987H93.7912C93.7912 31.1987 99.4349 30.8634 99.3218 31.1987C95.3607 31.2754 95.5638 42.2599 95.5638 42.2599V106.504C95.5638 110.359 92.4402 113.483 88.5845 113.483Z" fill="white"/>
<path d="M88.504 113.483C86.0243 113.483 27.6159 113.483 27.6159 113.483L27.5699 113.427C24.9272 110.256 24.9272 105.649 27.5699 102.477L27.6159 102.422H88.504L88.2031 102.745C85.3784 105.787 84.8974 110.974 88.504 113.483C88.504 113.483 90.9838 113.483 88.504 113.483Z" fill="#F2F2F2"/>
<path d="M84.342 43.4689H46.5171V46.6519H84.342V43.4689Z" fill="#F7D77F"/>
<path d="M89.6061 97.5543H72.6943V98.5911H89.6061V97.5543Z" fill="#004686"/>
<path d="M89.6082 52.6311H41.2549V53.9246H89.6082V52.6311Z" fill="#E6E6E6"/>
<path d="M89.6082 58.978H41.2549V60.2716H89.6082V58.978Z" fill="#E6E6E6"/>
<path d="M89.6082 65.327H41.2549V66.6206H89.6082V65.327Z" fill="#E6E6E6"/>
<path d="M89.6082 71.6738H41.2549V72.9674H89.6082V71.6738Z" fill="#E6E6E6"/>
<path d="M89.6082 78.0208H41.2549V79.3143H89.6082V78.0208Z" fill="#E6E6E6"/>
<path d="M89.6082 90.7166H41.2549V92.0101H89.6082V90.7166Z" fill="#E6E6E6"/>
<path d="M89.6082 84.3698H41.2549V85.6633H89.6082V84.3698Z" fill="#E6E6E6"/>
<path d="M51.8541 43.4689H46.5171V46.6519H51.8541V43.4689Z" fill="#8CAD81"/>
<path d="M52.7221 53.066V69.5792L46.4997 63.3568L40.2773 69.5792V53.066H52.7221Z" fill="#FF6666"/>
<path d="M46.4996 58.1157C52.6509 58.1157 57.6374 53.1291 57.6374 46.9779C57.6374 40.8267 52.6509 35.8401 46.4996 35.8401C40.3484 35.8401 35.3618 40.8267 35.3618 46.9779C35.3618 53.1291 40.3484 58.1157 46.4996 58.1157Z" fill="#FFD34D"/>
<path d="M46.4998 56.4772C41.2605 56.4772 36.9985 52.2153 36.9985 46.976C36.9985 41.7367 41.2605 37.4747 46.4998 37.4747C51.7391 37.4747 56.0011 41.7367 56.0011 46.976C56.0011 52.2153 51.7391 56.4772 46.4998 56.4772ZM46.4998 38.2125C41.6668 38.2125 37.7363 42.1449 37.7363 46.976C37.7363 51.809 41.6687 55.7394 46.4998 55.7394C51.3328 55.7394 55.2633 51.8071 55.2633 46.976C55.2633 42.1449 51.3328 38.2125 46.4998 38.2125Z" fill="#F2BA49"/>
<path d="M40.4515 44.6066H41.0187V49.9724H40.4515V44.6066ZM44.244 50.0184C43.8454 50.0184 43.4621 49.9545 43.0942 49.8268C42.7314 49.699 42.4503 49.5304 42.251 49.3209L42.4733 48.8839C42.6675 49.0781 42.9256 49.2365 43.2475 49.3592C43.5695 49.4767 43.9016 49.5355 44.244 49.5355C44.7244 49.5355 45.0846 49.4486 45.3248 49.2749C45.565 49.096 45.6851 48.866 45.6851 48.585C45.6851 48.3703 45.6187 48.1992 45.4858 48.0714C45.358 47.9436 45.1996 47.8465 45.0105 47.7801C44.8215 47.7086 44.5583 47.6319 44.221 47.5501C43.8173 47.4479 43.4954 47.3508 43.2552 47.2589C43.015 47.1618 42.808 47.0161 42.6343 46.8219C42.4656 46.6277 42.3813 46.3646 42.3813 46.0324C42.3813 45.7616 42.4529 45.5163 42.5959 45.2965C42.739 45.0717 42.9588 44.8928 43.2552 44.7599C43.5516 44.6271 43.9195 44.5606 44.359 44.5606C44.6656 44.5606 44.9646 44.6041 45.2558 44.691C45.5522 44.7727 45.8077 44.8877 46.0224 45.0359L45.8307 45.4882C45.6059 45.34 45.3657 45.2301 45.1102 45.1585C44.8547 45.0819 44.6043 45.0436 44.359 45.0436C43.8888 45.0436 43.5337 45.1355 43.2935 45.3195C43.0584 45.4984 42.9409 45.7309 42.9409 46.0171C42.9409 46.2317 43.0048 46.4054 43.1325 46.5383C43.2654 46.6661 43.4289 46.7657 43.6231 46.8373C43.8224 46.9037 44.0881 46.9778 44.4203 47.0596C44.8138 47.1567 45.1306 47.2538 45.3708 47.3508C45.6161 47.4428 45.8231 47.5859 45.9917 47.7801C46.1604 47.9692 46.2447 48.2273 46.2447 48.5543C46.2447 48.8252 46.1706 49.073 46.0224 49.2979C45.8793 49.5176 45.657 49.6939 45.3555 49.8268C45.054 49.9545 44.6835 50.0184 44.244 50.0184ZM49.8262 50.0184C49.2947 50.0184 48.8118 49.9009 48.3774 49.6658C47.9482 49.4256 47.6109 49.0986 47.3656 48.6846C47.1254 48.2707 47.0053 47.8057 47.0053 47.2895C47.0053 46.7734 47.1254 46.3084 47.3656 45.8944C47.6109 45.4805 47.9482 45.156 48.3774 44.9209C48.8118 44.6807 49.2947 44.5606 49.8262 44.5606C50.3577 44.5606 50.8355 44.6782 51.2596 44.9133C51.6889 45.1483 52.0262 45.4754 52.2715 45.8944C52.5168 46.3084 52.6394 46.7734 52.6394 47.2895C52.6394 47.8057 52.5168 48.2732 52.2715 48.6923C52.0262 49.1062 51.6889 49.4307 51.2596 49.6658C50.8355 49.9009 50.3577 50.0184 49.8262 50.0184ZM49.8262 49.5125C50.2504 49.5125 50.6336 49.4179 50.976 49.2289C51.3184 49.0347 51.5867 48.7689 51.7809 48.4317C51.9751 48.0893 52.0722 47.7086 52.0722 47.2895C52.0722 46.8705 51.9751 46.4923 51.7809 46.155C51.5867 45.8127 51.3184 45.5469 50.976 45.3578C50.6336 45.1637 50.2504 45.0666 49.8262 45.0666C49.4021 45.0666 49.0162 45.1637 48.6687 45.3578C48.3263 45.5469 48.0555 45.8127 47.8562 46.155C47.662 46.4923 47.5649 46.8705 47.5649 47.2895C47.5649 47.7086 47.662 48.0893 47.8562 48.4317C48.0555 48.7689 48.3263 49.0347 48.6687 49.2289C49.0162 49.4179 49.4021 49.5125 49.8262 49.5125Z" fill="white"/>
</g>
</g>
<defs>
<clipPath id="clip0">
<rect width="133.297" height="135.38" fill="white"/>
</clipPath>
<clipPath id="clip1">
<rect x="25.5884" y="31.0492" width="79.1452" height="83.9361" fill="white"/>
</clipPath>
</defs>
</svg>
