<svg xmlns="http://www.w3.org/2000/svg">
    <defs>
        <style>
        .img { display: none }
        .img:target { display: inline }
        </style>
    </defs>

    <svg viewBox="0 0 20 20" fill="none" xmlns="http://www.w3.org/2000/svg">
      <g id="whatsapp" class="img">
				<path d="M10.0025 0H9.9975C4.48375 0 0 4.485 0 10C0 12.1875 0.705 14.215 1.90375 15.8612L0.6575 19.5763L4.50125 18.3475C6.0825 19.395 7.96875 20 10.0025 20C15.5162 20 20 15.5138 20 10C20 4.48625 15.5162 0 10.0025 0Z" fill="white"/>
        <path d="M15.8212 14.1212C15.5799 14.8025 14.6224 15.3675 13.8587 15.5325C13.3362 15.6437 12.6537 15.7325 10.3562 14.78C7.41744 13.5625 5.52494 10.5762 5.37744 10.3825C5.23619 10.1887 4.18994 8.80124 4.18994 7.36625C4.18994 5.93125 4.91869 5.2325 5.21244 4.9325C5.45369 4.68625 5.85244 4.57375 6.23494 4.57375C6.35869 4.57375 6.46994 4.58 6.56994 4.585C6.86369 4.5975 7.01119 4.615 7.20494 5.07875C7.44619 5.66 8.03369 7.095 8.10369 7.2425C8.17494 7.39 8.24619 7.59 8.14619 7.78375C8.05244 7.98375 7.96994 8.07249 7.82244 8.24249C7.67494 8.41249 7.53494 8.54249 7.38744 8.72499C7.25244 8.88374 7.09994 9.05374 7.26994 9.34749C7.43994 9.63499 8.02744 10.5937 8.89244 11.3637C10.0087 12.3575 10.9137 12.675 11.2374 12.81C11.4787 12.91 11.7662 12.8862 11.9424 12.6987C12.1662 12.4575 12.4424 12.0575 12.7237 11.6637C12.9237 11.3812 13.1762 11.3462 13.4412 11.4462C13.7112 11.54 15.1399 12.2462 15.4337 12.3925C15.7274 12.54 15.9212 12.61 15.9924 12.7337C16.0624 12.8575 16.0624 13.4387 15.8212 14.1212Z" fill="#FFCF5C"/>
			</g>
		</svg>

		<svg viewBox="0 0 20 20" fill="none" xmlns="http://www.w3.org/2000/svg">
			<g id="telegram" class="img">
				<g clip-path="url(#clip0)">
				<path d="M7.84765 12.6509L7.51682 17.3042C7.99015 17.3042 8.19515 17.1009 8.44098 16.8567L10.6601 14.7359L15.2585 18.1034C16.1018 18.5734 16.696 18.3259 16.9235 17.3275L19.9418 3.18421L19.9426 3.18338C20.2101 1.93671 19.4918 1.44921 18.6701 1.75505L0.928482 8.54755C-0.282352 9.01755 -0.264018 9.69255 0.722648 9.99838L5.25848 11.4092L15.7943 4.81671C16.2901 4.48838 16.741 4.67005 16.3701 4.99838L7.84765 12.6509Z" fill="white"/>
				</g>
				<defs>
				<clipPath id="clip0">
				<rect width="20" height="20" fill="white"/>
				</clipPath>
				</defs>
			</g>
		</svg>

		<svg viewBox="0 0 20 20" fill="none" xmlns="http://www.w3.org/2000/svg">
			<g id="viber" class="img">
				<g clip-path="url(#clip0)">
				<path d="M19.2959 11.5775C19.8926 6.55496 19.0092 3.38412 17.4159 1.94996L17.4167 1.94912C14.8451 -0.500043 6.16007 -0.862543 3.0834 2.05912C1.70173 3.48829 1.21507 5.58579 1.16173 8.18246C1.1084 10.78 1.04507 15.6458 5.57923 16.9658H5.5834L5.57923 18.9816C5.57923 18.9816 5.5484 19.7983 6.07007 19.9625C6.66673 20.1558 6.93673 19.7766 8.79257 17.56C11.8959 17.8291 14.2792 17.2125 14.5501 17.1225C15.1767 16.9125 18.7226 16.4433 19.2959 11.5775Z" fill="white"/>
				<path d="M10.185 3.58085C9.86413 3.58085 9.86413 4.08085 10.185 4.08502C12.6741 4.10418 14.7241 5.83918 14.7466 9.02168C14.7466 9.35752 15.2383 9.35335 15.2341 9.01752H15.2333C15.2066 5.58835 12.9683 3.60002 10.185 3.58085Z" fill="#FFCF5C"/>
				<path d="M13.459 8.49413C13.4515 8.8258 13.9423 8.84163 13.9465 8.5058C13.9873 6.61496 12.8215 5.05746 10.6306 4.8933C10.3098 4.86996 10.2765 5.37413 10.5965 5.39746C12.4965 5.54163 13.4973 6.8383 13.459 8.49413Z" fill="#FFCF5C"/>
				<path d="M12.934 10.6451C12.5224 10.4067 12.1032 10.5551 11.9299 10.7892L11.5674 11.2584C11.3832 11.4967 11.039 11.4651 11.039 11.4651C8.52736 10.8009 7.85569 8.17255 7.85569 8.17255C7.85569 8.17255 7.82486 7.81672 8.05486 7.62588L8.50819 7.25088C8.73486 7.07088 8.87819 6.63755 8.64736 6.21172C8.03069 5.09755 7.61652 4.71338 7.40569 4.41838C7.18402 4.14088 6.85069 4.07838 6.50402 4.26588H6.49652C5.77569 4.68755 4.98652 5.47672 5.23902 6.28922C5.66985 7.14588 6.46152 9.87672 8.98486 11.9401C10.1707 12.9159 12.0474 13.9159 12.844 14.1467L12.8515 14.1584C13.6365 14.4201 14.3999 13.6001 14.8074 12.8576V12.8517C14.9882 12.4926 14.9282 12.1526 14.664 11.9301C14.1957 11.4734 13.489 10.9692 12.934 10.6451Z" fill="#FFCF5C"/>
				<path d="M10.9741 6.75328C11.775 6.79994 12.1633 7.21828 12.2049 8.07745C12.2199 8.41328 12.7074 8.38995 12.6924 8.05411C12.6391 6.93244 12.0541 6.30744 11.0008 6.24911C10.68 6.22994 10.65 6.73411 10.9741 6.75328Z" fill="#FFCF5C"/>
				</g>
				<defs>
				<clipPath id="clip0">
				<rect width="20" height="20" fill="white"/>
				</clipPath>
				</defs>
			</g>
		</svg>

		<svg viewBox="0 0 20 20" fill="none" xmlns="http://www.w3.org/2000/svg">
			<g id="skype" class="img">
				<g clip-path="url(#clip0)">
				<path d="M19.4242 12.1225C20.8725 5.6142 15.1708 -0.298303 8.475 0.836697C4.84 -1.41914 0 1.13003 0 5.45503C0 6.46086 0.2775 7.40253 0.76 8.2142C-0.585833 14.7375 5.1625 20.565 11.8525 19.3525C16.5817 21.8534 21.8075 16.8659 19.4242 12.1225ZM13.0592 16.0475C11.3025 16.77 8.41167 16.7742 6.6625 15.8584C4.16833 14.5284 3.725 11.5342 5.87667 11.5342C7.49833 11.5342 6.985 13.425 8.6225 14.1959C9.37417 14.5434 10.99 14.5792 11.9292 13.9459C12.8567 13.325 12.7717 12.3484 12.2675 11.8817C10.9317 10.6484 7.10917 11.1384 5.36167 8.9792C4.6025 8.04253 4.45917 6.39003 5.3925 5.1917C7.01917 3.09836 11.7925 2.97086 13.845 4.5517C15.74 6.01836 15.2283 7.96503 13.6992 7.96503C11.86 7.96503 12.8267 5.55836 9.8575 5.55836C7.705 5.55836 6.85833 7.0892 8.37417 7.8342C10.4292 8.85503 15.6658 8.5142 15.6658 12.5034C15.6617 14.1634 14.6442 15.4009 13.0592 16.0475Z" fill="white"/>
				</g>
				<defs>
				<clipPath id="clip0">
				<rect width="20" height="20" fill="white"/>
				</clipPath>
				</defs>
			</g>
		</svg>

		<svg viewBox="0 0 20 20" fill="none" xmlns="http://www.w3.org/2000/svg">
      <g id="whatsapp-dark" class="img">
				<path d="M10.0025 0H9.9975C4.48375 0 0 4.485 0 10C0 12.1875 0.705 14.215 1.90375 15.8612L0.6575 19.5763L4.50125 18.3475C6.0825 19.395 7.96875 20 10.0025 20C15.5162 20 20 15.5138 20 10C20 4.48625 15.5162 0 10.0025 0Z" fill="#2D3436"/>
        <path d="M15.8212 14.1212C15.5799 14.8025 14.6224 15.3675 13.8587 15.5325C13.3362 15.6437 12.6537 15.7325 10.3562 14.78C7.41744 13.5625 5.52494 10.5762 5.37744 10.3825C5.23619 10.1887 4.18994 8.80124 4.18994 7.36625C4.18994 5.93125 4.91869 5.2325 5.21244 4.9325C5.45369 4.68625 5.85244 4.57375 6.23494 4.57375C6.35869 4.57375 6.46994 4.58 6.56994 4.585C6.86369 4.5975 7.01119 4.615 7.20494 5.07875C7.44619 5.66 8.03369 7.095 8.10369 7.2425C8.17494 7.39 8.24619 7.59 8.14619 7.78375C8.05244 7.98375 7.96994 8.07249 7.82244 8.24249C7.67494 8.41249 7.53494 8.54249 7.38744 8.72499C7.25244 8.88374 7.09994 9.05374 7.26994 9.34749C7.43994 9.63499 8.02744 10.5937 8.89244 11.3637C10.0087 12.3575 10.9137 12.675 11.2374 12.81C11.4787 12.91 11.7662 12.8862 11.9424 12.6987C12.1662 12.4575 12.4424 12.0575 12.7237 11.6637C12.9237 11.3812 13.1762 11.3462 13.4412 11.4462C13.7112 11.54 15.1399 12.2462 15.4337 12.3925C15.7274 12.54 15.9212 12.61 15.9924 12.7337C16.0624 12.8575 16.0624 13.4387 15.8212 14.1212Z" fill="#FFCF5C"/>
			</g>
		</svg>

		<svg viewBox="0 0 20 20" fill="none" xmlns="http://www.w3.org/2000/svg">
			<g id="telegram-dark" class="img">
				<g clip-path="url(#clip0)">
				<path d="M7.84765 12.6509L7.51682 17.3042C7.99015 17.3042 8.19515 17.1009 8.44098 16.8567L10.6601 14.7359L15.2585 18.1034C16.1018 18.5734 16.696 18.3259 16.9235 17.3275L19.9418 3.18421L19.9426 3.18338C20.2101 1.93671 19.4918 1.44921 18.6701 1.75505L0.928482 8.54755C-0.282352 9.01755 -0.264018 9.69255 0.722648 9.99838L5.25848 11.4092L15.7943 4.81671C16.2901 4.48838 16.741 4.67005 16.3701 4.99838L7.84765 12.6509Z" fill="#2D3436"/>
				</g>
				<defs>
				<clipPath id="clip0">
				<rect width="20" height="20" fill="#2D3436"/>
				</clipPath>
				</defs>
			</g>
		</svg>

		<svg viewBox="0 0 20 20" fill="none" xmlns="http://www.w3.org/2000/svg">
			<g id="viber-dark" class="img">
				<g clip-path="url(#clip0)">
				<path d="M19.2959 11.5775C19.8926 6.55496 19.0092 3.38412 17.4159 1.94996L17.4167 1.94912C14.8451 -0.500043 6.16007 -0.862543 3.0834 2.05912C1.70173 3.48829 1.21507 5.58579 1.16173 8.18246C1.1084 10.78 1.04507 15.6458 5.57923 16.9658H5.5834L5.57923 18.9816C5.57923 18.9816 5.5484 19.7983 6.07007 19.9625C6.66673 20.1558 6.93673 19.7766 8.79257 17.56C11.8959 17.8291 14.2792 17.2125 14.5501 17.1225C15.1767 16.9125 18.7226 16.4433 19.2959 11.5775Z" fill="#2D3436"/>
				<path d="M10.185 3.58085C9.86413 3.58085 9.86413 4.08085 10.185 4.08502C12.6741 4.10418 14.7241 5.83918 14.7466 9.02168C14.7466 9.35752 15.2383 9.35335 15.2341 9.01752H15.2333C15.2066 5.58835 12.9683 3.60002 10.185 3.58085Z" fill="#FFCF5C"/>
				<path d="M13.459 8.49413C13.4515 8.8258 13.9423 8.84163 13.9465 8.5058C13.9873 6.61496 12.8215 5.05746 10.6306 4.8933C10.3098 4.86996 10.2765 5.37413 10.5965 5.39746C12.4965 5.54163 13.4973 6.8383 13.459 8.49413Z" fill="#FFCF5C"/>
				<path d="M12.934 10.6451C12.5224 10.4067 12.1032 10.5551 11.9299 10.7892L11.5674 11.2584C11.3832 11.4967 11.039 11.4651 11.039 11.4651C8.52736 10.8009 7.85569 8.17255 7.85569 8.17255C7.85569 8.17255 7.82486 7.81672 8.05486 7.62588L8.50819 7.25088C8.73486 7.07088 8.87819 6.63755 8.64736 6.21172C8.03069 5.09755 7.61652 4.71338 7.40569 4.41838C7.18402 4.14088 6.85069 4.07838 6.50402 4.26588H6.49652C5.77569 4.68755 4.98652 5.47672 5.23902 6.28922C5.66985 7.14588 6.46152 9.87672 8.98486 11.9401C10.1707 12.9159 12.0474 13.9159 12.844 14.1467L12.8515 14.1584C13.6365 14.4201 14.3999 13.6001 14.8074 12.8576V12.8517C14.9882 12.4926 14.9282 12.1526 14.664 11.9301C14.1957 11.4734 13.489 10.9692 12.934 10.6451Z" fill="#FFCF5C"/>
				<path d="M10.9741 6.75328C11.775 6.79994 12.1633 7.21828 12.2049 8.07745C12.2199 8.41328 12.7074 8.38995 12.6924 8.05411C12.6391 6.93244 12.0541 6.30744 11.0008 6.24911C10.68 6.22994 10.65 6.73411 10.9741 6.75328Z" fill="#FFCF5C"/>
				</g>
				<defs>
				<clipPath id="clip0">
				<rect width="20" height="20" fill="#2D3436"/>
				</clipPath>
				</defs>
			</g>
		</svg>

		<svg viewBox="0 0 20 20" fill="none" xmlns="http://www.w3.org/2000/svg">
			<g id="skype-dark" class="img">
				<g clip-path="url(#clip0)">
				<path d="M19.4242 12.1225C20.8725 5.6142 15.1708 -0.298303 8.475 0.836697C4.84 -1.41914 0 1.13003 0 5.45503C0 6.46086 0.2775 7.40253 0.76 8.2142C-0.585833 14.7375 5.1625 20.565 11.8525 19.3525C16.5817 21.8534 21.8075 16.8659 19.4242 12.1225ZM13.0592 16.0475C11.3025 16.77 8.41167 16.7742 6.6625 15.8584C4.16833 14.5284 3.725 11.5342 5.87667 11.5342C7.49833 11.5342 6.985 13.425 8.6225 14.1959C9.37417 14.5434 10.99 14.5792 11.9292 13.9459C12.8567 13.325 12.7717 12.3484 12.2675 11.8817C10.9317 10.6484 7.10917 11.1384 5.36167 8.9792C4.6025 8.04253 4.45917 6.39003 5.3925 5.1917C7.01917 3.09836 11.7925 2.97086 13.845 4.5517C15.74 6.01836 15.2283 7.96503 13.6992 7.96503C11.86 7.96503 12.8267 5.55836 9.8575 5.55836C7.705 5.55836 6.85833 7.0892 8.37417 7.8342C10.4292 8.85503 15.6658 8.5142 15.6658 12.5034C15.6617 14.1634 14.6442 15.4009 13.0592 16.0475Z" fill="#2D3436"/>
				</g>
				<defs>
				<clipPath id="clip0">
				<rect width="20" height="20" fill="#2D3436"/>
				</clipPath>
				</defs>
			</g>
		</svg>

		<svg viewBox="0 0 20 20" fill="none" xmlns="http://www.w3.org/2000/svg">
			<g id="phone" class="img">
				<path d="M5.51667 8.99167C6.71667 11.35 8.65 13.275 11.0083 14.4833L12.8417 12.65C13.0667 12.425 13.4 12.35 13.6917 12.45C14.625 12.7583 15.6333 12.925 16.6667 12.925C17.125 12.925 17.5 13.3 17.5 13.7583V16.6667C17.5 17.125 17.125 17.5 16.6667 17.5C8.84167 17.5 2.5 11.1583 2.5 3.33333C2.5 2.875 2.875 2.5 3.33333 2.5H6.25C6.70833 2.5 7.08333 2.875 7.08333 3.33333C7.08333 4.375 7.25 5.375 7.55833 6.30833C7.65 6.6 7.58333 6.925 7.35 7.15833L5.51667 8.99167Z" fill="#FFCF5C"/>
			</g>
		</svg>

		<svg viewBox="0 0 30 30" fill="none" xmlns="http://www.w3.org/2000/svg">
			<g id="phone-white" class="img">
				<path d="M8.275 13.4875C10.075 17.025 12.975 19.9125 16.5125 21.725L19.2625 18.975C19.6 18.6375 20.1 18.525 20.5375 18.675C21.9375 19.1375 23.45 19.3875 25 19.3875C25.6875 19.3875 26.25 19.95 26.25 20.6375V25C26.25 25.6875 25.6875 26.25 25 26.25C13.2625 26.25 3.75 16.7375 3.75 5C3.75 4.3125 4.3125 3.75 5 3.75H9.375C10.0625 3.75 10.625 4.3125 10.625 5C10.625 6.5625 10.875 8.0625 11.3375 9.4625C11.475 9.9 11.375 10.3875 11.025 10.7375L8.275 13.4875Z" fill="white"/>
			</g>
		</svg>


		<svg viewBox="0 0 20 20" fill="none" xmlns="http://www.w3.org/2000/svg">
			<g id="email" class="img">
				<path d="M16.6665 3.33333H3.33317C2.4165 3.33333 1.67484 4.08333 1.67484 5L1.6665 15C1.6665 15.9167 2.4165 16.6667 3.33317 16.6667H16.6665C17.5832 16.6667 18.3332 15.9167 18.3332 15V5C18.3332 4.08333 17.5832 3.33333 16.6665 3.33333ZM16.6665 6.66667L9.99984 10.8333L3.33317 6.66667V5L9.99984 9.16667L16.6665 5V6.66667Z" fill="#FFCF5C"/>
			</g>
		</svg>

		<svg viewBox="0 0 23 23" fill="none" xmlns="http://www.w3.org/2000/svg">
			<g id="menu" class="img">
				<circle cx="4" cy="4" r="4" fill="white"/>
				<circle cx="19" cy="4" r="4" fill="white"/>
				<circle cx="4" cy="19" r="4" fill="white"/>
				<circle cx="19" cy="19" r="4" fill="white"/>
			</g>
		</svg>

		<svg viewBox="0 0 20 20" fill="none" xmlns="http://www.w3.org/2000/svg">
			<g id="close" class="img">
				<path d="M19.4151 0.584865C18.6351 -0.194955 17.3706 -0.194955 16.5906 0.584865L10.0125 7.16291L3.43447 0.584865C2.65066 -0.172163 1.40476 -0.161337 0.634221 0.609199C-0.136314 1.37973 -0.14714 2.62564 0.609888 3.40945L7.18793 9.98749L0.609888 16.5655C0.0906032 17.0671 -0.117657 17.8098 0.0651528 18.5082C0.247963 19.2066 0.793393 19.752 1.49181 19.9348C2.19022 20.1177 2.93293 19.9094 3.43447 19.3901L10.0125 12.8121L16.5906 19.3901C17.3744 20.1471 18.6203 20.1363 19.3908 19.3658C20.1613 18.5952 20.1722 17.3493 19.4151 16.5655L12.8371 9.98749L19.4151 3.40945C20.195 2.62939 20.195 1.36492 19.4151 0.584865Z" fill="white"/>
			</g>
		</svg>

		<svg viewBox="0 0 25 25" fill="none" xmlns="http://www.w3.org/2000/svg">
			<g id="city" class="img">
				<path d="M18.6917 2.56451C17.038 0.910843 14.8392 0 12.5007 0C10.1617 0 7.96338 0.910843 6.30971 2.56451C3.24937 5.6244 2.86906 11.3816 5.48607 14.8698L12.5007 25L19.5048 14.8839C22.1323 11.3816 21.752 5.6244 18.6917 2.56451ZM12.5815 11.8706C10.8196 11.8706 9.38557 10.4366 9.38557 8.67469C9.38557 6.91282 10.8196 5.47875 12.5815 5.47875C14.3434 5.47875 15.7775 6.91282 15.7775 8.67469C15.7775 10.4366 14.3434 11.8706 12.5815 11.8706Z" fill="#FFCF5C"/>
			</g>
		</svg>

		<svg viewBox="0 0 10 7" fill="none" xmlns="http://www.w3.org/2000/svg">
			<g id="menu-arrow" class="img">
				<path d="M0.240743 1.65079L4.06652 6.1142C4.42595 6.53353 5.05724 6.58209 5.47657 6.22267C5.51545 6.18934 5.55171 6.15308 5.58504 6.1142L9.41082 1.65079C9.77024 1.23147 9.72168 0.600166 9.30235 0.240743C9.12111 0.0853922 8.89027 0 8.65156 0L1 0C0.447715 0 0 0.447715 0 1C0 1.23871 0.0853922 1.46955 0.240743 1.65079Z" fill="#333333"/>
			</g>
		</svg>

		<svg viewBox="0 0 20 20" fill="none" xmlns="http://www.w3.org/2000/svg">
			<g id="popup-close" class="img">
				<path d="M19.4151 0.584865C18.6351 -0.194955 17.3706 -0.194955 16.5906 0.584865L10.0125 7.16291L3.43447 0.584865C2.65066 -0.172163 1.40476 -0.161337 0.634221 0.609199C-0.136314 1.37973 -0.14714 2.62564 0.609888 3.40945L7.18793 9.98749L0.609888 16.5655C0.0906032 17.0671 -0.117657 17.8098 0.0651528 18.5082C0.247963 19.2066 0.793393 19.752 1.49181 19.9348C2.19022 20.1177 2.93293 19.9094 3.43447 19.3901L10.0125 12.8121L16.5906 19.3901C17.3744 20.1471 18.6203 20.1363 19.3908 19.3658C20.1613 18.5952 20.1722 17.3493 19.4151 16.5655L12.8371 9.98749L19.4151 3.40945C20.195 2.62939 20.195 1.36492 19.4151 0.584865Z" fill="#FFAB01"/>
			</g>
		</svg>


		<svg viewBox="0 0 321 401" fill="none" xmlns="http://www.w3.org/2000/svg">
			<g id="popup-shape1" class="img">
				<path fill-rule="evenodd" clip-rule="evenodd" d="M-3.65689 295.272C-160.651 246.073 -142.637 137.355 -94.5643 107.485C-46.4913 77.6146 -70.4573 61.1502 -36.1791 38.4352C-15.6179 24.81 29.7647 20.9484 70.2634 45.4632C106.994 67.6969 114.289 108.076 210.55 118.267C445.912 143.185 194.239 357.288 -3.65689 295.272Z" fill="#EEDFF2"/>
			</g>
		</svg>

		<svg viewBox="0 0 292 265" fill="none" xmlns="http://www.w3.org/2000/svg">
			<g id="popup-shape2" class="img">
				<path opacity="0.8" fill-rule="evenodd" clip-rule="evenodd" d="M334.948 211.602C325.514 282.342 252.348 330.949 171.529 320.17C90.71 309.391 3.57178 272.686 13.0064 201.948C26.0915 103.84 82.7523 177.966 137.294 149.182C171.888 130.925 173.785 18.1378 245.397 27.6889C326.216 38.4681 344.383 140.863 334.948 211.602Z" fill="#FFE29D"/>
			</g>
		</svg>

		<svg viewBox="0 0 495 372" fill="none" xmlns="http://www.w3.org/2000/svg">
			<g id="popup-shape3" class="img">
				<path fill-rule="evenodd" clip-rule="evenodd" d="M67.3687 269.1C255.568 143.468 301.57 227.805 339.905 192.536C378.24 157.268 280.359 117.278 313.07 66.0308C336.071 29.9959 448.776 103.599 448.776 9.29495C448.776 -85.0093 208.041 -252.465 165.795 -265.252C67.3463 -295.051 54.5015 -7.94323 -181.674 -10.3719C-530.716 -13.9612 -186.076 438.287 67.3687 269.1Z" fill="#FFE29D"/>
			</g>
		</svg>

		<svg width="300" height="310" viewBox="0 0 300 310" fill="none" xmlns="http://www.w3.org/2000/svg">
			<g id="popup-shape4" class="img">
				<path fill-rule="evenodd" clip-rule="evenodd" d="M45.3386 208.4C64.3204 264.422 125.123 294.449 181.145 275.468C237.168 256.486 293.235 215.731 274.254 159.71C247.928 82.013 220.156 149.167 176.118 132.811C148.185 122.436 127.336 31.4445 77.6965 48.2637C21.6743 67.2455 26.3568 152.378 45.3386 208.4Z" fill="#EEDFF2"/>
			</g>
		</svg>

		<svg viewBox="0 0 271 228" fill="none" xmlns="http://www.w3.org/2000/svg">
			<g id="popup-shape5" class="img">
				<path fill-rule="evenodd" clip-rule="evenodd" d="M132.912 -33.4966C75.163 -47.5817 16.9297 -12.185 2.84458 45.5643C-11.2406 103.314 -6.88101 172.834 50.8671 186.919C130.959 206.453 88.9596 146.71 126.564 118.168C150.415 100.064 238.833 131.408 251.314 80.238C265.399 22.4888 190.662 -19.4114 132.912 -33.4966Z" fill="#EEDFF2"/>
			</g>
		</svg>

		<svg viewBox="0 0 410 310" fill="none" xmlns="http://www.w3.org/2000/svg">
			<g id="popup-shape6" class="img">
				<path fill-rule="evenodd" clip-rule="evenodd" d="M337.297 341.176C547.651 201.021 578.521 345.597 618.941 299.167C659.362 252.738 542.327 193.293 503.11 111.995C468.23 39.6881 486.049 24.0552 416.236 2.92733C332.378 -22.4508 364.09 197.532 173.991 131.381C102.811 106.612 -16.567 177.312 2.99095 246.381C31.6505 347.594 208.834 426.768 337.297 341.176Z" fill="#FFE29D"/>
			</g>
		</svg>

		<svg viewBox="0 0 242 1033" fill="none" xmlns="http://www.w3.org/2000/svg">
			<g id="banner-shape1" class="img">
				<path opacity="0.8" d="M165.566 499.75C186.579 357.939 -89.7445 110.637 -332.386 127.722C-575.027 144.807 -692.06 419.809 -713.189 561.721C-734.202 703.532 -554.591 804.561 -311.949 787.476C-69.3077 770.391 144.552 641.561 165.566 499.75Z" fill="#B8A6FF"/>
			</g>
		</svg>

		<svg viewBox="0 0 145 149" fill="none" xmlns="http://www.w3.org/2000/svg">
			<g id="banner-shape2" class="img">
				<path opacity="0.8" d="M141.075 126.765C154.708 101.184 131.369 25.8974 93.6193 5.43263C55.8696 -15.0321 17.9718 27.0925 4.33895 52.6734C-9.29389 78.2544 10.2663 115.561 48.053 136.026C85.7656 156.454 127.442 152.308 141.075 126.765Z" fill="#EEDFF2"/>
			</g>
		</svg>

		<svg viewBox="0 0 503 280" fill="none" xmlns="http://www.w3.org/2000/svg">
			<g id="footer-shape" class="img">
				<path d="M155.5 84.5037C71.7737 169.288 10.8333 326.17 0 405.004C0 416.504 22.2 447.904 111 481.504C222 523.504 619 387.504 643.5 296.504C668 205.504 525.5 199.253 468.5 166.003C426.5 141.503 428 71.1086 387 23.0037C362.692 -5.51624 266 -27.392 155.5 84.5037Z" fill="#7359BA"/>
			</g>
		</svg>

		<svg viewBox="0 0 26 37" fill="none" xmlns="http://www.w3.org/2000/svg">
			<g id="up" class="img">
				<path d="M14.0607 0.939341C13.4749 0.353554 12.5251 0.353554 11.9393 0.939341L2.3934 10.4853C1.80761 11.0711 1.80761 12.0208 2.3934 12.6066C2.97919 13.1924 3.92893 13.1924 4.51472 12.6066L13 4.12132L21.4853 12.6066C22.0711 13.1924 23.0208 13.1924 23.6066 12.6066C24.1924 12.0208 24.1924 11.0711 23.6066 10.4853L14.0607 0.939341ZM14.5 27L14.5 2H11.5L11.5 27H14.5Z" fill="white"/>
				<line x1="1.5" y1="35.5" x2="24.5" y2="35.5" stroke="white" stroke-width="3" stroke-linecap="round" stroke-linejoin="round"/>
			</g>
		</svg>

		<svg viewBox="0 0 11 9" fill="none" xmlns="http://www.w3.org/2000/svg">
			<g id="checkbox" class="img">
				<path fill-rule="evenodd" clip-rule="evenodd" d="M10.3135 1.70725L4.2425 7.77825C3.8515 8.16925 3.2185 8.16925 2.8285 7.77825L0.2925 5.24325C-0.0975 4.85225 -0.0975 4.21925 0.2925 3.82825C0.6835 3.43825 1.3165 3.43825 1.7065 3.82825L3.5355 5.65725L8.8995 0.29325C9.2895 -0.09775 9.9225 -0.09775 10.3135 0.29325C10.7045 0.68325 10.7045 1.31625 10.3135 1.70725Z" fill="#FFAB01"/>
			</g>
		</svg>

		<svg viewBox="0 0 10 10" fill="none" xmlns="http://www.w3.org/2000/svg">
			<g id="file-close" class="img">
				<path d="M9.70757 0.292433C9.31754 -0.0974775 8.6853 -0.0974775 8.29528 0.292433L5.00626 3.58145L1.71724 0.292433C1.32533 -0.0860816 0.702378 -0.0806683 0.317111 0.304599C-0.0681569 0.689867 -0.0735702 1.31282 0.304944 1.70472L3.59396 4.99374L0.304944 8.28276C0.0453016 8.53354 -0.0588284 8.90489 0.0325764 9.2541C0.123981 9.6033 0.396696 9.87602 0.745903 9.96742C1.09511 10.0588 1.46646 9.9547 1.71724 9.69506L5.00626 6.40604L8.29528 9.69506C8.68718 10.0736 9.31013 10.0682 9.6954 9.68289C10.0807 9.29762 10.0861 8.67467 9.70757 8.28276L6.41855 4.99374L9.70757 1.70472C10.0975 1.3147 10.0975 0.682461 9.70757 0.292433Z" fill="#E0E0E0"/>
			</g>
		</svg>

		<svg viewBox="0 0 71 71" fill="none" xmlns="http://www.w3.org/2000/svg">
			<g opacity="0.5" id="file" class="img">
				<path d="M50.2917 26.0334H20.7084C20.0552 26.0334 19.525 26.5624 19.525 27.2168C19.525 27.8712 20.0552 28.4001 20.7084 28.4001H50.2917C50.9449 28.4001 51.475 27.8712 51.475 27.2168C51.475 26.5624 50.9449 26.0334 50.2917 26.0334Z" fill="#2D3436"/>
				<path d="M20.7084 18.9333H32.5417C33.1949 18.9333 33.725 18.4044 33.725 17.75C33.725 17.0956 33.1949 16.5667 32.5417 16.5667H20.7084C20.0552 16.5667 19.525 17.0956 19.525 17.75C19.525 18.4044 20.0552 18.9333 20.7084 18.9333Z" fill="#2D3436"/>
				<path d="M50.2917 35.5H20.7084C20.0552 35.5 19.525 36.029 19.525 36.6833C19.525 37.3377 20.0552 37.8667 20.7084 37.8667H50.2917C50.9449 37.8667 51.475 37.3377 51.475 36.6833C51.475 36.029 50.9449 35.5 50.2917 35.5Z" fill="#2D3436"/>
				<path d="M50.2917 44.9666H20.7084C20.0552 44.9666 19.525 45.4955 19.525 46.1499C19.525 46.8043 20.0552 47.3332 20.7084 47.3332H50.2917C50.9449 47.3332 51.475 46.8043 51.475 46.1499C51.475 45.4955 50.9449 44.9666 50.2917 44.9666Z" fill="#2D3436"/>
				<path d="M50.2917 54.4333H20.7084C20.0552 54.4333 19.525 54.9623 19.525 55.6167C19.525 56.2711 20.0552 56.8 20.7084 56.8H50.2917C50.9449 56.8 51.475 56.2711 51.475 55.6167C51.475 54.9623 50.9449 54.4333 50.2917 54.4333Z" fill="#2D3436"/>
				<path d="M46.0482 0H7.69165V71H63.3083V17.2601L46.0482 0ZM46.7416 4.0399L59.2684 16.5667H46.7416V4.0399ZM10.0583 68.6333V2.36667H44.375V18.9333H60.9416V68.6333H10.0583Z" fill="#2D3436"/>
			</g>
		</svg>

		<svg viewBox="0 0 21 16" fill="none" xmlns="http://www.w3.org/2000/svg">
			<g id="arrow" class="img">
				<path d="M0.292892 8.70711C-0.0976315 8.31658 -0.0976315 7.68342 0.292892 7.29289L6.65685 0.928932C7.04738 0.538408 7.68054 0.538408 8.07107 0.928932C8.46159 1.31946 8.46159 1.95262 8.07107 2.34315L2.41421 8L8.07107 13.6569C8.46159 14.0474 8.46159 14.6805 8.07107 15.0711C7.68054 15.4616 7.04738 15.4616 6.65685 15.0711L0.292892 8.70711ZM21 9H1V7H21V9Z" fill="white"/>
			</g>
		</svg>

		<svg viewBox="0 0 378 403" fill="none" xmlns="http://www.w3.org/2000/svg">
			<g id="user-shape1" class="img">
				<path opacity="0.8" d="M50.1958 309.354C15.0945 274.514 33.4672 196.863 72.0915 143.346C110.716 89.8283 207.474 21.2634 300.115 78.702C336.177 101.056 390.158 164.758 289.876 265.956C234.198 322.122 98.6769 357.481 50.1958 309.354Z" fill="#EEDFF2"/>
			</g>
		</svg>

		<svg viewBox="0 0 375 400" fill="none" xmlns="http://www.w3.org/2000/svg">
			<g id="user-shape2" class="img">
				<path opacity="0.8" d="M50.1718 93.2843C15.3331 127.863 33.5684 204.934 71.9036 258.051C110.239 311.167 206.273 379.219 298.221 322.21C334.013 300.024 387.59 236.799 288.058 136.358C232.797 80.612 98.2901 45.5178 50.1718 93.2843Z" fill="#B8A6FF"/>
			</g>
		</svg>

		<svg viewBox="0 0 351 383" fill="none" xmlns="http://www.w3.org/2000/svg">
			<g id="user-shape3" class="img">
				<path opacity="0.8" d="M51.9116 316.424C12.5229 286.516 20.4965 207.12 51.7269 148.977C82.9574 90.8347 169.83 10.1103 269.236 54.8322C307.931 72.2358 369.84 128.264 283.777 241.802C235.99 304.819 106.315 357.738 51.9116 316.424Z" fill="#FFE29D"/>
			</g>
		</svg>

		<svg viewBox="0 0 378 402" fill="none" xmlns="http://www.w3.org/2000/svg">
			<g id="user-shape4" class="img">
				<path opacity="0.8" d="M50.1958 93.4072C15.0945 128.247 33.4672 205.899 72.0915 259.416C110.716 312.933 207.474 381.498 300.115 324.06C336.177 301.706 390.158 238.004 289.876 136.805C234.198 80.6393 98.6769 45.2805 50.1958 93.4072Z" fill="#FFE29D"/>
			</g>
		</svg>

		<svg viewBox="0 0 378 402" fill="none" xmlns="http://www.w3.org/2000/svg">
			<g id="user-shape5" class="img">
				<path opacity="0.8" d="M327.924 93.4067C363.026 128.247 344.653 205.898 306.029 259.415C267.404 312.933 170.646 381.498 78.0052 324.059C41.9431 301.705 -12.0379 238.003 88.2444 136.805C143.923 80.6388 279.443 45.28 327.924 93.4067Z" fill="#EEDFF2"/>
			</g>
		</svg>

		<svg viewBox="0 0 361 365" fill="none" xmlns="http://www.w3.org/2000/svg">
			<g id="plash-shape1" class="img">
				<path fill-rule="evenodd" clip-rule="evenodd" d="M-218.046 346.35C63.6252 258.229 90.2276 380.672 151.156 350.61C212.085 320.548 104.271 234.555 164.028 182.431C206.047 145.778 320.072 279.283 354.702 161.258C389.333 43.2341 149.54 -254.744 101.363 -286.261C-10.9051 -359.708 -132.413 -5.10182 -427.101 -94.8701C-862.618 -227.538 -597.368 465.022 -218.046 346.35Z" fill="#7359BA"/>
			</g>
		</svg>

		<svg viewBox="0 0 133 125" fill="none" xmlns="http://www.w3.org/2000/svg">
			<g id="plash-shape2" class="img">
				<path opacity="0.8" fill-rule="evenodd" clip-rule="evenodd" d="M75.6514 124.737C107.324 124.737 133 99.1561 133 67.6001C133 36.044 121.966 0.737305 90.2936 0.737305C46.367 0.737305 75.6514 26.2667 59.789 45.7177C49.7279 58.0549 0 53.0118 0 80.9726C0 112.529 43.9786 124.737 75.6514 124.737Z" fill="#FFE29D"/>
			</g>
		</svg>

		<svg viewBox="0 0 318 265" fill="none" xmlns="http://www.w3.org/2000/svg">
			<g id="region-shape2" class="img">
				<path opacity="0.8" fill-rule="evenodd" clip-rule="evenodd" d="M-14.5788 263.899C7.02802 338.482 85.0057 381.428 159.589 359.821C234.173 338.214 310.094 288.056 288.487 213.474C258.521 110.035 218.159 196.474 161.365 172.44C125.342 157.195 103.338 36.6422 37.2516 55.7873C-37.3319 77.3941 -36.1856 189.315 -14.5788 263.899Z" fill="#FFE29D"/>
			</g>
		</svg>

		<svg viewBox="0 0 473 347" fill="none" xmlns="http://www.w3.org/2000/svg">
			<g id="region-shape3" class="img">
				<path opacity="0.8" fill-rule="evenodd" clip-rule="evenodd" d="M390.191 -45.1317C171.069 -121.429 259.776 -224.124 203.401 -227.982C147.025 -231.84 168.363 -113.251 130.592 -39.5062C96.9989 26.0832 90.9245 64.5 98.9026 84.5035C134.272 173.185 270.218 14.8458 327.13 190.623C348.439 256.441 466.324 304.638 506.037 252.056C564.232 175.004 524.008 1.46292 390.191 -45.1317Z" fill="#EEDFF2"/>
			</g>
		</svg>

		<svg viewBox="0 0 120 120" fill="none" xmlns="http://www.w3.org/2000/svg">
			<g id="zoom" class="img">
				<circle cx="60" cy="60" r="57.5" stroke="#FFAB01" stroke-width="5"/>
				<path d="M57.5795 35.1322C55.6437 35.1325 54.0745 36.7016 54.0742 38.6374L54.0742 54.9637L37.7479 54.9637C35.8358 54.997 34.3031 56.5565 34.3031 58.4689C34.3031 60.3814 35.8358 61.9409 37.7479 61.9742H54.0742L54.0742 78.3005C54.0522 79.5673 54.7154 80.7475 55.809 81.3873C56.9026 82.0272 58.2563 82.0272 59.3499 81.3873C60.4435 80.7475 61.1067 79.5673 61.0847 78.3005L61.0847 61.9742L77.411 61.9742C79.3232 61.9409 80.8559 60.3814 80.8559 58.4689C80.8559 56.5565 79.3232 54.997 77.411 54.9637H61.0847L61.0847 38.6374C61.0844 36.7016 59.5152 35.1325 57.5795 35.1322Z" fill="#FFAB01"/>
			</g>
		</svg>

		<svg viewBox="0 0 268 223" fill="none" xmlns="http://www.w3.org/2000/svg">
			<g id="faq-user-name" class="img">
				<g filter="url(#filter0_d)">
				<path d="M40.8066 102.002C37.2763 132.312 97.7045 183.071 149.214 177.809C200.723 172.547 223.798 113.257 227.352 82.9248C230.883 52.6147 192 32.3261 140.491 37.588C88.9819 42.85 44.337 71.6919 40.8066 102.002Z" fill="white"/>
				</g>
				<path d="M219.818 83.007C219.949 80.4834 219.751 78.0416 219.247 75.6931C218.98 75.7531 218.713 75.5865 218.651 75.3192C218.437 74.4083 218.177 73.5119 217.87 72.6306C217.78 72.3712 217.916 72.0879 218.174 71.9956C217.336 69.721 216.195 67.5483 214.774 65.4895C214.55 65.6472 214.239 65.5944 214.08 65.3707C213.542 64.6167 212.965 63.8781 212.35 63.1556C212.172 62.9461 212.197 62.6324 212.405 62.4531C210.842 60.6675 209.051 58.9833 207.051 57.4099C206.882 57.6268 206.57 57.667 206.352 57.4993C205.616 56.9338 204.853 56.3829 204.062 55.8469C203.834 55.6925 203.774 55.383 203.927 55.1546C201.954 53.846 199.821 52.6298 197.538 51.5126C197.418 51.7603 197.12 51.8645 196.872 51.7453C196.033 51.3425 195.173 50.953 194.294 50.577C194.041 50.4686 193.923 50.1758 194.03 49.9223C191.835 49.0018 189.523 48.1651 187.104 47.4171C187.023 47.6805 186.745 47.8292 186.481 47.7493C185.584 47.4779 184.673 47.2186 183.747 46.9717C183.481 46.9006 183.322 46.6274 183.393 46.361C181.082 45.7585 178.686 45.2323 176.211 44.7863C176.163 45.0576 175.904 45.2389 175.632 45.1913C174.707 45.0291 173.77 44.8781 172.823 44.7386C172.55 44.6984 172.361 44.4449 172.401 44.1722C170.026 43.8334 167.586 43.5656 165.087 43.372C165.066 43.6469 164.827 43.8532 164.552 43.8331C163.612 43.7642 162.664 43.7057 161.707 43.6579C161.432 43.6442 161.219 43.41 161.233 43.1346C158.827 43.0241 156.373 42.9805 153.873 43.0063C153.877 43.282 153.656 43.5085 153.38 43.5124C152.441 43.5255 151.496 43.5485 150.544 43.5814C150.269 43.591 150.037 43.3755 150.027 43.0999C147.615 43.192 145.165 43.3477 142.68 43.5692C142.705 43.8438 142.503 44.0869 142.229 44.1123C141.755 44.1561 141.28 44.2023 140.804 44.2509C140.321 44.3003 139.838 44.352 139.356 44.406C139.082 44.4366 138.835 44.2395 138.804 43.9655C136.29 44.2552 133.797 44.6063 131.327 45.0158C131.372 45.2877 131.189 45.5453 130.917 45.5914C129.96 45.7533 129.007 45.9239 128.057 46.1032C127.786 46.1544 127.525 45.9764 127.473 45.7055C124.985 46.1838 122.524 46.721 120.096 47.3136C120.162 47.5814 119.999 47.852 119.731 47.9183C118.786 48.1523 117.846 48.3947 116.912 48.6453C116.646 48.7168 116.372 48.5589 116.3 48.2927C113.849 48.9587 111.436 49.6811 109.066 50.4563C109.152 50.7182 109.01 51.0006 108.748 51.0873C107.824 51.393 106.907 51.7067 105.997 52.0283C105.737 52.1202 105.451 51.9841 105.359 51.7242C102.961 52.5808 100.612 53.4916 98.3182 54.4527C98.4253 54.7068 98.3064 54.9997 98.0523 55.1072C97.1562 55.4866 96.2686 55.8736 95.3899 56.2682C95.1383 56.3811 94.8428 56.269 94.7294 56.0177C92.4024 57.073 90.1387 58.1807 87.9451 59.3363C88.0741 59.58 87.9815 59.8821 87.738 60.0117C86.8783 60.4691 86.0297 60.9338 85.1925 61.4056C84.9522 61.541 84.6478 61.4563 84.5119 61.2165C82.2821 62.4857 80.1341 63.8054 78.076 65.1705C78.2289 65.3998 78.1674 65.7097 77.9383 65.8632C77.1282 66.4062 76.3323 66.9562 75.5513 67.5128C75.3268 67.6729 75.0152 67.6209 74.8547 67.3969C72.7643 68.903 70.781 70.4575 68.9146 72.054C69.0943 72.2628 69.0713 72.5778 68.8629 72.7582C68.1241 73.3978 67.4044 74.044 66.7043 74.6964C66.5026 74.8843 66.1871 74.8735 65.9987 74.6726C64.1152 76.4505 62.3753 78.2738 60.7914 80.1346C61.0017 80.3122 61.029 80.6265 60.8522 80.8377C60.2256 81.5859 59.6246 82.3399 59.0501 83.099C58.8839 83.3186 58.5715 83.3624 58.3514 83.1973C56.8018 85.2831 55.4485 87.4088 54.308 89.5638C54.5516 89.6909 54.6471 89.9912 54.5212 90.2358C54.0759 91.1009 53.6657 91.97 53.2914 92.8426C53.183 93.0955 52.8908 93.213 52.6377 93.1063C51.6506 95.4909 50.9279 97.9034 50.4912 100.33C50.7616 100.376 50.9444 100.632 50.9 100.904C50.8225 101.376 50.7562 101.849 50.7011 102.322C50.645 102.803 50.6072 103.291 50.5872 103.784C50.576 104.058 50.3466 104.271 50.0733 104.263C50.0318 106.738 50.42 109.341 51.194 112.026C51.4572 111.948 51.7344 112.097 51.8144 112.36C52.097 113.289 52.4262 114.229 52.8002 115.178C52.9012 115.434 52.7763 115.723 52.5213 115.826C53.4617 118.129 54.6581 120.476 56.0846 122.838C56.3196 122.695 56.6264 122.768 56.7707 123.003C57.2876 123.843 57.8338 124.685 58.4081 125.529C58.5633 125.756 58.5049 126.067 58.2778 126.222C59.7164 128.302 61.3227 130.384 63.0792 132.451C63.2886 132.272 63.6035 132.296 63.7833 132.505C64.4314 133.259 65.0997 134.01 65.7872 134.759C65.9737 134.962 65.9606 135.277 65.7582 135.464C67.501 137.342 69.3633 139.199 71.3317 141.021C71.5185 140.818 71.8342 140.805 72.0374 140.992C72.7744 141.668 73.526 142.339 74.2917 143.004C74.4998 143.185 74.5221 143.5 74.3417 143.709C76.3001 145.396 78.3474 147.046 80.4723 148.646C80.6377 148.425 80.9505 148.38 81.1715 148.545C81.9722 149.143 82.7837 149.734 83.6056 150.317C83.8305 150.477 83.8837 150.789 83.7246 151.014C85.8533 152.511 88.0493 153.957 90.3022 155.34C90.446 155.105 90.7531 155.031 90.9888 155.174C91.846 155.695 92.7113 156.208 93.5841 156.71C93.8232 156.848 93.9055 157.153 93.7684 157.392C96.0414 158.689 98.3645 159.92 100.728 161.074C100.848 160.826 101.147 160.722 101.395 160.842C102.3 161.279 103.21 161.705 104.126 162.119C104.377 162.233 104.489 162.528 104.376 162.78C106.775 163.852 109.21 164.843 111.67 165.742C111.764 165.483 112.05 165.348 112.31 165.442C113.256 165.783 114.206 166.11 115.16 166.423C115.422 166.509 115.564 166.791 115.479 167.053C117.988 167.863 120.518 168.574 123.059 169.176C123.122 168.908 123.39 168.74 123.659 168.803C124.638 169.029 125.618 169.239 126.599 169.431C126.87 169.485 127.046 169.747 126.994 170.017C129.589 170.512 132.189 170.887 134.785 171.132C134.81 170.858 135.052 170.655 135.326 170.679C136.329 170.767 137.33 170.836 138.33 170.884C138.605 170.897 138.818 171.131 138.806 171.406C141.443 171.515 144.069 171.483 146.673 171.298C146.652 171.023 146.858 170.783 147.132 170.762C147.631 170.722 148.129 170.677 148.626 170.627C149.089 170.579 149.549 170.527 150.006 170.47C150.28 170.437 150.529 170.63 150.564 170.903C152.966 170.585 155.299 170.137 157.563 169.569C157.495 169.302 157.655 169.03 157.922 168.961C158.815 168.729 159.696 168.479 160.567 168.21C160.83 168.129 161.11 168.276 161.192 168.538C163.486 167.81 165.705 166.956 167.85 165.99C167.736 165.739 167.846 165.443 168.096 165.328C168.933 164.943 169.759 164.541 170.573 164.122C170.818 163.996 171.119 164.092 171.245 164.336C173.362 163.225 175.402 162.004 177.368 160.683C177.213 160.456 177.272 160.145 177.5 159.99C178.259 159.472 179.007 158.939 179.744 158.392C179.965 158.228 180.277 158.274 180.442 158.494C182.344 157.062 184.17 155.536 185.922 153.932C185.736 153.729 185.748 153.414 185.95 153.226C186.624 152.601 187.287 151.964 187.939 151.316C188.135 151.122 188.45 151.122 188.645 151.317C190.322 149.63 191.925 147.871 193.457 146.053C193.246 145.876 193.217 145.561 193.394 145.349C193.983 144.642 194.561 143.926 195.129 143.202C195.299 142.985 195.613 142.947 195.83 143.117C197.29 141.235 198.679 139.301 199.998 137.328C199.769 137.176 199.706 136.866 199.858 136.636C200.367 135.867 200.866 135.092 201.354 134.312C201.5 134.079 201.808 134.007 202.042 134.153C203.302 132.121 204.49 130.057 205.61 127.975C205.367 127.845 205.275 127.543 205.404 127.299C205.839 126.483 206.263 125.664 206.676 124.844C206.8 124.598 207.1 124.498 207.346 124.622C208.42 122.47 209.421 120.308 210.352 118.151C210.098 118.042 209.981 117.749 210.089 117.495C210.453 116.642 210.806 115.791 211.148 114.941C211.251 114.685 211.541 114.561 211.797 114.664C212.694 112.411 213.514 110.172 214.26 107.965C213.999 107.878 213.857 107.595 213.945 107.333C214.239 106.45 214.522 105.573 214.793 104.702C214.875 104.438 215.154 104.291 215.418 104.372C216.138 102.025 216.771 99.726 217.321 97.4989C217.053 97.4334 216.888 97.1635 216.953 96.8954C217.174 95.9833 217.381 95.0838 217.574 94.1984C217.632 93.9289 217.898 93.7578 218.167 93.8158C218.692 91.3499 219.108 88.9958 219.416 86.7878C219.144 86.7505 218.952 86.4993 218.989 86.226C219.05 85.7699 219.106 85.3203 219.158 84.8777C219.213 84.4062 219.257 83.9375 219.289 83.4717C219.308 83.1976 219.544 82.9904 219.818 83.007Z" stroke="#FFAB01" stroke-linecap="round" stroke-linejoin="round" stroke-dasharray="2.9 8.5"/>
				<defs>
				<filter id="filter0_d" x="0.65918" y="0.757324" width="266.916" height="221.43" filterUnits="userSpaceOnUse" color-interpolation-filters="sRGB">
				<feFlood flood-opacity="0" result="BackgroundImageFix"/>
				<feColorMatrix in="SourceAlpha" type="matrix" values="0 0 0 0 0 0 0 0 0 0 0 0 0 0 0 0 0 0 127 0"/>
				<feOffset dy="4"/>
				<feGaussianBlur stdDeviation="20"/>
				<feColorMatrix type="matrix" values="0 0 0 0 0 0 0 0 0 0 0 0 0 0 0 0 0 0 0.11 0"/>
				<feBlend mode="normal" in2="BackgroundImageFix" result="effect1_dropShadow"/>
				<feBlend mode="normal" in="SourceGraphic" in2="effect1_dropShadow" result="shape"/>
				</filter>
				</defs>
			</g>
		</svg>

		<svg viewBox="0 0 17 14" fill="none" xmlns="http://www.w3.org/2000/svg">
			<g id="textarea" class="img">
				<line opacity="0.3" x1="15.7405" y1="6.69636" x2="6.69575" y2="13.0296" stroke="#333333" stroke-linecap="round" stroke-linejoin="round"/>
				<line opacity="0.3" x1="16.26" y1="0.696364" x2="0.696136" y2="11.5943" stroke="#333333" stroke-linecap="round" stroke-linejoin="round"/>
			</g>
		</svg>

		<svg viewBox="0 0 353 384" fill="none" xmlns="http://www.w3.org/2000/svg">
			<g id="get-quest-shape" class="img">
				<path fill-rule="evenodd" clip-rule="evenodd" d="M-37.7765 -98.0198C148.117 -234.88 256.209 -124.32 250.139 -45.1414C244.07 34.0372 282.58 20.5715 279.855 78.204C278.22 112.774 244.949 167.335 183.615 192.834C127.988 215.959 76.2401 190.723 -15.1347 291.207C-238.551 536.894 -272.102 74.4967 -37.7765 -98.0198Z" fill="#EEDFF2"/>
			</g>
		</svg>

		<svg viewBox="0 0 268 305" fill="none" xmlns="http://www.w3.org/2000/svg">
			<g id="just-bg" class="img" opacity="0.15">
			<path d="M137.58 333.864L125.136 325.867C122.62 324.205 63.2723 285.074 43.415 270.383C24.3663 256.321 13 231.342 13 203.578V69.7882L37.2152 71.4954H40.2252C70.4605 71.4954 109.546 42.7426 122.305 31.4212L137.58 17L152.855 31.4212C165.659 42.7426 204.7 71.4954 234.98 71.4954H237.99L262.16 69.7882V203.353C262.16 231.118 250.839 256.097 231.79 270.159C211.933 284.849 152.54 324.07 150.025 325.642L137.58 333.864Z" stroke="white" stroke-width="10" stroke-linecap="round" stroke-linejoin="round"/>
			<path d="M137.581 306.728C137.581 306.728 198.725 266.295 218.448 251.963C231.926 241.9 239.653 223.031 239.653 203.353V94.048C192.615 97.3276 137.716 48.2234 137.671 48.1785C137.671 48.1785 82.6812 97.3276 35.6436 94.048V203.353C35.6436 223.031 43.1911 241.9 56.8487 251.963C76.4814 266.474 137.716 306.728 137.716 306.728" stroke="white" stroke-width="10" stroke-linecap="round" stroke-linejoin="round"/>
			<path d="M102.046 163.549L133.629 195.088L195.807 132.955" stroke="white" stroke-width="10" stroke-linecap="round" stroke-linejoin="round"/>
			<path d="M168.892 132.954C159.356 125.005 147.395 120.543 134.982 120.306C122.569 120.069 110.446 124.071 100.613 131.651C90.7804 139.231 83.8256 149.936 80.896 162.001C77.9664 174.066 79.2371 186.769 84.4986 198.014C89.76 209.259 98.6977 218.375 109.837 223.857C120.976 229.339 133.652 230.86 145.772 228.169C157.892 225.478 168.733 218.735 176.505 209.054C184.277 199.372 188.517 187.331 188.525 174.915C188.522 172.088 188.311 169.266 187.896 166.469" stroke="white" stroke-width="10" stroke-linecap="round" stroke-linejoin="round"/>
			</g>
		</svg>

		<svg viewBox="0 0 561 518" fill="none" xmlns="http://www.w3.org/2000/svg">
			<g id="just-left-bg" class="img">
				<path opacity="0.6" d="M39.6912 111.337C-14.821 178.397 52.3786 391.605 183.434 457.378C314.49 523.151 459.751 416.568 514.354 349.491C568.867 282.43 506.819 174.806 375.763 109.033C244.707 43.2606 94.2034 44.2762 39.6912 111.337Z" fill="#B8A6FF"/>
			</g>
		</svg>

		<svg  viewBox="0 0 21 16" fill="none" xmlns="http://www.w3.org/2000/svg">
			<g id="wie-arrow" class="img">
				<path d="M20.7071 8.70711C21.0976 8.31658 21.0976 7.68342 20.7071 7.29289L14.3431 0.928932C13.9526 0.538408 13.3195 0.538408 12.9289 0.928932C12.5384 1.31946 12.5384 1.95262 12.9289 2.34315L18.5858 8L12.9289 13.6569C12.5384 14.0474 12.5384 14.6805 12.9289 15.0711C13.3195 15.4616 13.9526 15.4616 14.3431 15.0711L20.7071 8.70711ZM0 9H20V7H0V9Z" fill="#FFAB01"/>
			</g>
		</svg>

		<svg viewBox="0 0 12 16" fill="none" xmlns="http://www.w3.org/2000/svg">
			<g id="download" class="img">
				<path d="M5.46967 15.5303C5.76256 15.8232 6.23744 15.8232 6.53033 15.5303L11.3033 10.7574C11.5962 10.4645 11.5962 9.98959 11.3033 9.6967C11.0104 9.40381 10.5355 9.40381 10.2426 9.6967L6 13.9393L1.75736 9.6967C1.46447 9.40381 0.989593 9.40381 0.696699 9.6967C0.403806 9.98959 0.403806 10.4645 0.696699 10.7574L5.46967 15.5303ZM5.25 0L5.25 15H6.75L6.75 0L5.25 0Z" fill="white"/>
			</g>
		</svg>




















    <svg viewBox="0 0 16 16">
        <g id="chart" class="img">
        
        </g>
    </svg>

</svg>