<svg xmlns="http://www.w3.org/2000/svg">
    <defs>
        <style>
        .img { display: none }
        .img:target { display: inline }
        </style>
    </defs>

    <svg viewBox="0 0 20 20" fill="none" xmlns="http://www.w3.org/2000/svg">
      <g id="whatsapp" class="img">
				<path d="M10.0025 0H9.9975C4.48375 0 0 4.485 0 10C0 12.1875 0.705 14.215 1.90375 15.8612L0.6575 19.5763L4.50125 18.3475C6.0825 19.395 7.96875 20 10.0025 20C15.5162 20 20 15.5138 20 10C20 4.48625 15.5162 0 10.0025 0Z" fill="white"/>
        <path d="M15.8212 14.1212C15.5799 14.8025 14.6224 15.3675 13.8587 15.5325C13.3362 15.6437 12.6537 15.7325 10.3562 14.78C7.41744 13.5625 5.52494 10.5762 5.37744 10.3825C5.23619 10.1887 4.18994 8.80124 4.18994 7.36625C4.18994 5.93125 4.91869 5.2325 5.21244 4.9325C5.45369 4.68625 5.85244 4.57375 6.23494 4.57375C6.35869 4.57375 6.46994 4.58 6.56994 4.585C6.86369 4.5975 7.01119 4.615 7.20494 5.07875C7.44619 5.66 8.03369 7.095 8.10369 7.2425C8.17494 7.39 8.24619 7.59 8.14619 7.78375C8.05244 7.98375 7.96994 8.07249 7.82244 8.24249C7.67494 8.41249 7.53494 8.54249 7.38744 8.72499C7.25244 8.88374 7.09994 9.05374 7.26994 9.34749C7.43994 9.63499 8.02744 10.5937 8.89244 11.3637C10.0087 12.3575 10.9137 12.675 11.2374 12.81C11.4787 12.91 11.7662 12.8862 11.9424 12.6987C12.1662 12.4575 12.4424 12.0575 12.7237 11.6637C12.9237 11.3812 13.1762 11.3462 13.4412 11.4462C13.7112 11.54 15.1399 12.2462 15.4337 12.3925C15.7274 12.54 15.9212 12.61 15.9924 12.7337C16.0624 12.8575 16.0624 13.4387 15.8212 14.1212Z" fill="#FFCF5C"/>
			</g>
		</svg>

		<svg viewBox="0 0 20 20" fill="none" xmlns="http://www.w3.org/2000/svg">
			<g id="telegram" class="img">
				<g clip-path="url(#clip0)">
				<path d="M7.84765 12.6509L7.51682 17.3042C7.99015 17.3042 8.19515 17.1009 8.44098 16.8567L10.6601 14.7359L15.2585 18.1034C16.1018 18.5734 16.696 18.3259 16.9235 17.3275L19.9418 3.18421L19.9426 3.18338C20.2101 1.93671 19.4918 1.44921 18.6701 1.75505L0.928482 8.54755C-0.282352 9.01755 -0.264018 9.69255 0.722648 9.99838L5.25848 11.4092L15.7943 4.81671C16.2901 4.48838 16.741 4.67005 16.3701 4.99838L7.84765 12.6509Z" fill="white"/>
				</g>
				<defs>
				<clipPath id="clip0">
				<rect width="20" height="20" fill="white"/>
				</clipPath>
				</defs>
			</g>
		</svg>

		<svg viewBox="0 0 20 20" fill="none" xmlns="http://www.w3.org/2000/svg">
			<g id="viber" class="img">
				<g clip-path="url(#clip0)">
				<path d="M19.2959 11.5775C19.8926 6.55496 19.0092 3.38412 17.4159 1.94996L17.4167 1.94912C14.8451 -0.500043 6.16007 -0.862543 3.0834 2.05912C1.70173 3.48829 1.21507 5.58579 1.16173 8.18246C1.1084 10.78 1.04507 15.6458 5.57923 16.9658H5.5834L5.57923 18.9816C5.57923 18.9816 5.5484 19.7983 6.07007 19.9625C6.66673 20.1558 6.93673 19.7766 8.79257 17.56C11.8959 17.8291 14.2792 17.2125 14.5501 17.1225C15.1767 16.9125 18.7226 16.4433 19.2959 11.5775Z" fill="white"/>
				<path d="M10.185 3.58085C9.86413 3.58085 9.86413 4.08085 10.185 4.08502C12.6741 4.10418 14.7241 5.83918 14.7466 9.02168C14.7466 9.35752 15.2383 9.35335 15.2341 9.01752H15.2333C15.2066 5.58835 12.9683 3.60002 10.185 3.58085Z" fill="#FFCF5C"/>
				<path d="M13.459 8.49413C13.4515 8.8258 13.9423 8.84163 13.9465 8.5058C13.9873 6.61496 12.8215 5.05746 10.6306 4.8933C10.3098 4.86996 10.2765 5.37413 10.5965 5.39746C12.4965 5.54163 13.4973 6.8383 13.459 8.49413Z" fill="#FFCF5C"/>
				<path d="M12.934 10.6451C12.5224 10.4067 12.1032 10.5551 11.9299 10.7892L11.5674 11.2584C11.3832 11.4967 11.039 11.4651 11.039 11.4651C8.52736 10.8009 7.85569 8.17255 7.85569 8.17255C7.85569 8.17255 7.82486 7.81672 8.05486 7.62588L8.50819 7.25088C8.73486 7.07088 8.87819 6.63755 8.64736 6.21172C8.03069 5.09755 7.61652 4.71338 7.40569 4.41838C7.18402 4.14088 6.85069 4.07838 6.50402 4.26588H6.49652C5.77569 4.68755 4.98652 5.47672 5.23902 6.28922C5.66985 7.14588 6.46152 9.87672 8.98486 11.9401C10.1707 12.9159 12.0474 13.9159 12.844 14.1467L12.8515 14.1584C13.6365 14.4201 14.3999 13.6001 14.8074 12.8576V12.8517C14.9882 12.4926 14.9282 12.1526 14.664 11.9301C14.1957 11.4734 13.489 10.9692 12.934 10.6451Z" fill="#FFCF5C"/>
				<path d="M10.9741 6.75328C11.775 6.79994 12.1633 7.21828 12.2049 8.07745C12.2199 8.41328 12.7074 8.38995 12.6924 8.05411C12.6391 6.93244 12.0541 6.30744 11.0008 6.24911C10.68 6.22994 10.65 6.73411 10.9741 6.75328Z" fill="#FFCF5C"/>
				</g>
				<defs>
				<clipPath id="clip0">
				<rect width="20" height="20" fill="white"/>
				</clipPath>
				</defs>
			</g>
		</svg>

		<svg viewBox="0 0 20 20" fill="none" xmlns="http://www.w3.org/2000/svg">
			<g id="skype" class="img">
				<g clip-path="url(#clip0)">
				<path d="M19.4242 12.1225C20.8725 5.6142 15.1708 -0.298303 8.475 0.836697C4.84 -1.41914 0 1.13003 0 5.45503C0 6.46086 0.2775 7.40253 0.76 8.2142C-0.585833 14.7375 5.1625 20.565 11.8525 19.3525C16.5817 21.8534 21.8075 16.8659 19.4242 12.1225ZM13.0592 16.0475C11.3025 16.77 8.41167 16.7742 6.6625 15.8584C4.16833 14.5284 3.725 11.5342 5.87667 11.5342C7.49833 11.5342 6.985 13.425 8.6225 14.1959C9.37417 14.5434 10.99 14.5792 11.9292 13.9459C12.8567 13.325 12.7717 12.3484 12.2675 11.8817C10.9317 10.6484 7.10917 11.1384 5.36167 8.9792C4.6025 8.04253 4.45917 6.39003 5.3925 5.1917C7.01917 3.09836 11.7925 2.97086 13.845 4.5517C15.74 6.01836 15.2283 7.96503 13.6992 7.96503C11.86 7.96503 12.8267 5.55836 9.8575 5.55836C7.705 5.55836 6.85833 7.0892 8.37417 7.8342C10.4292 8.85503 15.6658 8.5142 15.6658 12.5034C15.6617 14.1634 14.6442 15.4009 13.0592 16.0475Z" fill="white"/>
				</g>
				<defs>
				<clipPath id="clip0">
				<rect width="20" height="20" fill="white"/>
				</clipPath>
				</defs>
			</g>
		</svg>

		<svg viewBox="0 0 20 20" fill="none" xmlns="http://www.w3.org/2000/svg">
      <g id="whatsapp-dark" class="img">
				<path d="M10.0025 0H9.9975C4.48375 0 0 4.485 0 10C0 12.1875 0.705 14.215 1.90375 15.8612L0.6575 19.5763L4.50125 18.3475C6.0825 19.395 7.96875 20 10.0025 20C15.5162 20 20 15.5138 20 10C20 4.48625 15.5162 0 10.0025 0Z" fill="#2D3436"/>
        <path d="M15.8212 14.1212C15.5799 14.8025 14.6224 15.3675 13.8587 15.5325C13.3362 15.6437 12.6537 15.7325 10.3562 14.78C7.41744 13.5625 5.52494 10.5762 5.37744 10.3825C5.23619 10.1887 4.18994 8.80124 4.18994 7.36625C4.18994 5.93125 4.91869 5.2325 5.21244 4.9325C5.45369 4.68625 5.85244 4.57375 6.23494 4.57375C6.35869 4.57375 6.46994 4.58 6.56994 4.585C6.86369 4.5975 7.01119 4.615 7.20494 5.07875C7.44619 5.66 8.03369 7.095 8.10369 7.2425C8.17494 7.39 8.24619 7.59 8.14619 7.78375C8.05244 7.98375 7.96994 8.07249 7.82244 8.24249C7.67494 8.41249 7.53494 8.54249 7.38744 8.72499C7.25244 8.88374 7.09994 9.05374 7.26994 9.34749C7.43994 9.63499 8.02744 10.5937 8.89244 11.3637C10.0087 12.3575 10.9137 12.675 11.2374 12.81C11.4787 12.91 11.7662 12.8862 11.9424 12.6987C12.1662 12.4575 12.4424 12.0575 12.7237 11.6637C12.9237 11.3812 13.1762 11.3462 13.4412 11.4462C13.7112 11.54 15.1399 12.2462 15.4337 12.3925C15.7274 12.54 15.9212 12.61 15.9924 12.7337C16.0624 12.8575 16.0624 13.4387 15.8212 14.1212Z" fill="#FFCF5C"/>
			</g>
		</svg>

		<svg viewBox="0 0 20 20" fill="none" xmlns="http://www.w3.org/2000/svg">
			<g id="telegram-dark" class="img">
				<g clip-path="url(#clip0)">
				<path d="M7.84765 12.6509L7.51682 17.3042C7.99015 17.3042 8.19515 17.1009 8.44098 16.8567L10.6601 14.7359L15.2585 18.1034C16.1018 18.5734 16.696 18.3259 16.9235 17.3275L19.9418 3.18421L19.9426 3.18338C20.2101 1.93671 19.4918 1.44921 18.6701 1.75505L0.928482 8.54755C-0.282352 9.01755 -0.264018 9.69255 0.722648 9.99838L5.25848 11.4092L15.7943 4.81671C16.2901 4.48838 16.741 4.67005 16.3701 4.99838L7.84765 12.6509Z" fill="#2D3436"/>
				</g>
				<defs>
				<clipPath id="clip0">
				<rect width="20" height="20" fill="#2D3436"/>
				</clipPath>
				</defs>
			</g>
		</svg>

		<svg viewBox="0 0 20 20" fill="none" xmlns="http://www.w3.org/2000/svg">
			<g id="viber-dark" class="img">
				<g clip-path="url(#clip0)">
				<path d="M19.2959 11.5775C19.8926 6.55496 19.0092 3.38412 17.4159 1.94996L17.4167 1.94912C14.8451 -0.500043 6.16007 -0.862543 3.0834 2.05912C1.70173 3.48829 1.21507 5.58579 1.16173 8.18246C1.1084 10.78 1.04507 15.6458 5.57923 16.9658H5.5834L5.57923 18.9816C5.57923 18.9816 5.5484 19.7983 6.07007 19.9625C6.66673 20.1558 6.93673 19.7766 8.79257 17.56C11.8959 17.8291 14.2792 17.2125 14.5501 17.1225C15.1767 16.9125 18.7226 16.4433 19.2959 11.5775Z" fill="#2D3436"/>
				<path d="M10.185 3.58085C9.86413 3.58085 9.86413 4.08085 10.185 4.08502C12.6741 4.10418 14.7241 5.83918 14.7466 9.02168C14.7466 9.35752 15.2383 9.35335 15.2341 9.01752H15.2333C15.2066 5.58835 12.9683 3.60002 10.185 3.58085Z" fill="#FFCF5C"/>
				<path d="M13.459 8.49413C13.4515 8.8258 13.9423 8.84163 13.9465 8.5058C13.9873 6.61496 12.8215 5.05746 10.6306 4.8933C10.3098 4.86996 10.2765 5.37413 10.5965 5.39746C12.4965 5.54163 13.4973 6.8383 13.459 8.49413Z" fill="#FFCF5C"/>
				<path d="M12.934 10.6451C12.5224 10.4067 12.1032 10.5551 11.9299 10.7892L11.5674 11.2584C11.3832 11.4967 11.039 11.4651 11.039 11.4651C8.52736 10.8009 7.85569 8.17255 7.85569 8.17255C7.85569 8.17255 7.82486 7.81672 8.05486 7.62588L8.50819 7.25088C8.73486 7.07088 8.87819 6.63755 8.64736 6.21172C8.03069 5.09755 7.61652 4.71338 7.40569 4.41838C7.18402 4.14088 6.85069 4.07838 6.50402 4.26588H6.49652C5.77569 4.68755 4.98652 5.47672 5.23902 6.28922C5.66985 7.14588 6.46152 9.87672 8.98486 11.9401C10.1707 12.9159 12.0474 13.9159 12.844 14.1467L12.8515 14.1584C13.6365 14.4201 14.3999 13.6001 14.8074 12.8576V12.8517C14.9882 12.4926 14.9282 12.1526 14.664 11.9301C14.1957 11.4734 13.489 10.9692 12.934 10.6451Z" fill="#FFCF5C"/>
				<path d="M10.9741 6.75328C11.775 6.79994 12.1633 7.21828 12.2049 8.07745C12.2199 8.41328 12.7074 8.38995 12.6924 8.05411C12.6391 6.93244 12.0541 6.30744 11.0008 6.24911C10.68 6.22994 10.65 6.73411 10.9741 6.75328Z" fill="#FFCF5C"/>
				</g>
				<defs>
				<clipPath id="clip0">
				<rect width="20" height="20" fill="#2D3436"/>
				</clipPath>
				</defs>
			</g>
		</svg>

		<svg viewBox="0 0 20 20" fill="none" xmlns="http://www.w3.org/2000/svg">
			<g id="skype-dark" class="img">
				<g clip-path="url(#clip0)">
				<path d="M19.4242 12.1225C20.8725 5.6142 15.1708 -0.298303 8.475 0.836697C4.84 -1.41914 0 1.13003 0 5.45503C0 6.46086 0.2775 7.40253 0.76 8.2142C-0.585833 14.7375 5.1625 20.565 11.8525 19.3525C16.5817 21.8534 21.8075 16.8659 19.4242 12.1225ZM13.0592 16.0475C11.3025 16.77 8.41167 16.7742 6.6625 15.8584C4.16833 14.5284 3.725 11.5342 5.87667 11.5342C7.49833 11.5342 6.985 13.425 8.6225 14.1959C9.37417 14.5434 10.99 14.5792 11.9292 13.9459C12.8567 13.325 12.7717 12.3484 12.2675 11.8817C10.9317 10.6484 7.10917 11.1384 5.36167 8.9792C4.6025 8.04253 4.45917 6.39003 5.3925 5.1917C7.01917 3.09836 11.7925 2.97086 13.845 4.5517C15.74 6.01836 15.2283 7.96503 13.6992 7.96503C11.86 7.96503 12.8267 5.55836 9.8575 5.55836C7.705 5.55836 6.85833 7.0892 8.37417 7.8342C10.4292 8.85503 15.6658 8.5142 15.6658 12.5034C15.6617 14.1634 14.6442 15.4009 13.0592 16.0475Z" fill="#2D3436"/>
				</g>
				<defs>
				<clipPath id="clip0">
				<rect width="20" height="20" fill="#2D3436"/>
				</clipPath>
				</defs>
			</g>
		</svg>

		<svg viewBox="0 0 20 20" fill="none" xmlns="http://www.w3.org/2000/svg">
			<g id="phone" class="img">
				<path d="M5.51667 8.99167C6.71667 11.35 8.65 13.275 11.0083 14.4833L12.8417 12.65C13.0667 12.425 13.4 12.35 13.6917 12.45C14.625 12.7583 15.6333 12.925 16.6667 12.925C17.125 12.925 17.5 13.3 17.5 13.7583V16.6667C17.5 17.125 17.125 17.5 16.6667 17.5C8.84167 17.5 2.5 11.1583 2.5 3.33333C2.5 2.875 2.875 2.5 3.33333 2.5H6.25C6.70833 2.5 7.08333 2.875 7.08333 3.33333C7.08333 4.375 7.25 5.375 7.55833 6.30833C7.65 6.6 7.58333 6.925 7.35 7.15833L5.51667 8.99167Z" fill="#FFCF5C"/>
			</g>
		</svg>

		<svg viewBox="0 0 30 30" fill="none" xmlns="http://www.w3.org/2000/svg">
			<g id="phone-white" class="img">
				<path d="M8.275 13.4875C10.075 17.025 12.975 19.9125 16.5125 21.725L19.2625 18.975C19.6 18.6375 20.1 18.525 20.5375 18.675C21.9375 19.1375 23.45 19.3875 25 19.3875C25.6875 19.3875 26.25 19.95 26.25 20.6375V25C26.25 25.6875 25.6875 26.25 25 26.25C13.2625 26.25 3.75 16.7375 3.75 5C3.75 4.3125 4.3125 3.75 5 3.75H9.375C10.0625 3.75 10.625 4.3125 10.625 5C10.625 6.5625 10.875 8.0625 11.3375 9.4625C11.475 9.9 11.375 10.3875 11.025 10.7375L8.275 13.4875Z" fill="white"/>
			</g>
		</svg>


		<svg viewBox="0 0 20 20" fill="none" xmlns="http://www.w3.org/2000/svg">
			<g id="email" class="img">
				<path d="M16.6665 3.33333H3.33317C2.4165 3.33333 1.67484 4.08333 1.67484 5L1.6665 15C1.6665 15.9167 2.4165 16.6667 3.33317 16.6667H16.6665C17.5832 16.6667 18.3332 15.9167 18.3332 15V5C18.3332 4.08333 17.5832 3.33333 16.6665 3.33333ZM16.6665 6.66667L9.99984 10.8333L3.33317 6.66667V5L9.99984 9.16667L16.6665 5V6.66667Z" fill="#FFCF5C"/>
			</g>
		</svg>

		<svg viewBox="0 0 23 23" fill="none" xmlns="http://www.w3.org/2000/svg">
			<g id="menu" class="img">
				<circle cx="4" cy="4" r="4" fill="white"/>
				<circle cx="19" cy="4" r="4" fill="white"/>
				<circle cx="4" cy="19" r="4" fill="white"/>
				<circle cx="19" cy="19" r="4" fill="white"/>
			</g>
		</svg>

		<svg viewBox="0 0 20 20" fill="none" xmlns="http://www.w3.org/2000/svg">
			<g id="close" class="img">
				<path d="M19.4151 0.584865C18.6351 -0.194955 17.3706 -0.194955 16.5906 0.584865L10.0125 7.16291L3.43447 0.584865C2.65066 -0.172163 1.40476 -0.161337 0.634221 0.609199C-0.136314 1.37973 -0.14714 2.62564 0.609888 3.40945L7.18793 9.98749L0.609888 16.5655C0.0906032 17.0671 -0.117657 17.8098 0.0651528 18.5082C0.247963 19.2066 0.793393 19.752 1.49181 19.9348C2.19022 20.1177 2.93293 19.9094 3.43447 19.3901L10.0125 12.8121L16.5906 19.3901C17.3744 20.1471 18.6203 20.1363 19.3908 19.3658C20.1613 18.5952 20.1722 17.3493 19.4151 16.5655L12.8371 9.98749L19.4151 3.40945C20.195 2.62939 20.195 1.36492 19.4151 0.584865Z" fill="white"/>
			</g>
		</svg>

		<svg viewBox="0 0 25 25" fill="none" xmlns="http://www.w3.org/2000/svg">
			<g id="city" class="img">
				<path d="M18.6917 2.56451C17.038 0.910843 14.8392 0 12.5007 0C10.1617 0 7.96338 0.910843 6.30971 2.56451C3.24937 5.6244 2.86906 11.3816 5.48607 14.8698L12.5007 25L19.5048 14.8839C22.1323 11.3816 21.752 5.6244 18.6917 2.56451ZM12.5815 11.8706C10.8196 11.8706 9.38557 10.4366 9.38557 8.67469C9.38557 6.91282 10.8196 5.47875 12.5815 5.47875C14.3434 5.47875 15.7775 6.91282 15.7775 8.67469C15.7775 10.4366 14.3434 11.8706 12.5815 11.8706Z" fill="#FFCF5C"/>
			</g>
		</svg>

		<svg viewBox="0 0 10 7" fill="none" xmlns="http://www.w3.org/2000/svg">
			<g id="menu-arrow" class="img">
				<path d="M0.240743 1.65079L4.06652 6.1142C4.42595 6.53353 5.05724 6.58209 5.47657 6.22267C5.51545 6.18934 5.55171 6.15308 5.58504 6.1142L9.41082 1.65079C9.77024 1.23147 9.72168 0.600166 9.30235 0.240743C9.12111 0.0853922 8.89027 0 8.65156 0L1 0C0.447715 0 0 0.447715 0 1C0 1.23871 0.0853922 1.46955 0.240743 1.65079Z" fill="#333333"/>
			</g>
		</svg>

		<svg viewBox="0 0 20 20" fill="none" xmlns="http://www.w3.org/2000/svg">
			<g id="popup-close" class="img">
				<path d="M19.4151 0.584865C18.6351 -0.194955 17.3706 -0.194955 16.5906 0.584865L10.0125 7.16291L3.43447 0.584865C2.65066 -0.172163 1.40476 -0.161337 0.634221 0.609199C-0.136314 1.37973 -0.14714 2.62564 0.609888 3.40945L7.18793 9.98749L0.609888 16.5655C0.0906032 17.0671 -0.117657 17.8098 0.0651528 18.5082C0.247963 19.2066 0.793393 19.752 1.49181 19.9348C2.19022 20.1177 2.93293 19.9094 3.43447 19.3901L10.0125 12.8121L16.5906 19.3901C17.3744 20.1471 18.6203 20.1363 19.3908 19.3658C20.1613 18.5952 20.1722 17.3493 19.4151 16.5655L12.8371 9.98749L19.4151 3.40945C20.195 2.62939 20.195 1.36492 19.4151 0.584865Z" fill="#FFAB01"/>
			</g>
		</svg>


		<svg viewBox="0 0 321 401" fill="none" xmlns="http://www.w3.org/2000/svg">
			<g id="popup-shape1" class="img">
				<path fill-rule="evenodd" clip-rule="evenodd" d="M-3.65689 295.272C-160.651 246.073 -142.637 137.355 -94.5643 107.485C-46.4913 77.6146 -70.4573 61.1502 -36.1791 38.4352C-15.6179 24.81 29.7647 20.9484 70.2634 45.4632C106.994 67.6969 114.289 108.076 210.55 118.267C445.912 143.185 194.239 357.288 -3.65689 295.272Z" fill="#EEDFF2"/>
			</g>
		</svg>

		<svg viewBox="0 0 292 265" fill="none" xmlns="http://www.w3.org/2000/svg">
			<g id="popup-shape2" class="img">
				<path opacity="0.8" fill-rule="evenodd" clip-rule="evenodd" d="M334.948 211.602C325.514 282.342 252.348 330.949 171.529 320.17C90.71 309.391 3.57178 272.686 13.0064 201.948C26.0915 103.84 82.7523 177.966 137.294 149.182C171.888 130.925 173.785 18.1378 245.397 27.6889C326.216 38.4681 344.383 140.863 334.948 211.602Z" fill="#FFE29D"/>
			</g>
		</svg>

		<svg viewBox="0 0 495 372" fill="none" xmlns="http://www.w3.org/2000/svg">
			<g id="popup-shape3" class="img">
				<path fill-rule="evenodd" clip-rule="evenodd" d="M67.3687 269.1C255.568 143.468 301.57 227.805 339.905 192.536C378.24 157.268 280.359 117.278 313.07 66.0308C336.071 29.9959 448.776 103.599 448.776 9.29495C448.776 -85.0093 208.041 -252.465 165.795 -265.252C67.3463 -295.051 54.5015 -7.94323 -181.674 -10.3719C-530.716 -13.9612 -186.076 438.287 67.3687 269.1Z" fill="#FFE29D"/>
			</g>
		</svg>

		<svg width="300" height="310" viewBox="0 0 300 310" fill="none" xmlns="http://www.w3.org/2000/svg">
			<g id="popup-shape4" class="img">
				<path fill-rule="evenodd" clip-rule="evenodd" d="M45.3386 208.4C64.3204 264.422 125.123 294.449 181.145 275.468C237.168 256.486 293.235 215.731 274.254 159.71C247.928 82.013 220.156 149.167 176.118 132.811C148.185 122.436 127.336 31.4445 77.6965 48.2637C21.6743 67.2455 26.3568 152.378 45.3386 208.4Z" fill="#EEDFF2"/>
			</g>
		</svg>

		<svg viewBox="0 0 271 228" fill="none" xmlns="http://www.w3.org/2000/svg">
			<g id="popup-shape5" class="img">
				<path fill-rule="evenodd" clip-rule="evenodd" d="M132.912 -33.4966C75.163 -47.5817 16.9297 -12.185 2.84458 45.5643C-11.2406 103.314 -6.88101 172.834 50.8671 186.919C130.959 206.453 88.9596 146.71 126.564 118.168C150.415 100.064 238.833 131.408 251.314 80.238C265.399 22.4888 190.662 -19.4114 132.912 -33.4966Z" fill="#EEDFF2"/>
			</g>
		</svg>

		<svg viewBox="0 0 410 310" fill="none" xmlns="http://www.w3.org/2000/svg">
			<g id="popup-shape6" class="img">
				<path fill-rule="evenodd" clip-rule="evenodd" d="M337.297 341.176C547.651 201.021 578.521 345.597 618.941 299.167C659.362 252.738 542.327 193.293 503.11 111.995C468.23 39.6881 486.049 24.0552 416.236 2.92733C332.378 -22.4508 364.09 197.532 173.991 131.381C102.811 106.612 -16.567 177.312 2.99095 246.381C31.6505 347.594 208.834 426.768 337.297 341.176Z" fill="#FFE29D"/>
			</g>
		</svg>

		<svg viewBox="0 0 242 1033" fill="none" xmlns="http://www.w3.org/2000/svg">
			<g id="banner-shape1" class="img">
				<path opacity="0.8" d="M165.566 499.75C186.579 357.939 -89.7445 110.637 -332.386 127.722C-575.027 144.807 -692.06 419.809 -713.189 561.721C-734.202 703.532 -554.591 804.561 -311.949 787.476C-69.3077 770.391 144.552 641.561 165.566 499.75Z" fill="#B8A6FF"/>
			</g>
		</svg>

		<svg viewBox="0 0 145 149" fill="none" xmlns="http://www.w3.org/2000/svg">
			<g id="banner-shape2" class="img">
				<path opacity="0.8" d="M141.075 126.765C154.708 101.184 131.369 25.8974 93.6193 5.43263C55.8696 -15.0321 17.9718 27.0925 4.33895 52.6734C-9.29389 78.2544 10.2663 115.561 48.053 136.026C85.7656 156.454 127.442 152.308 141.075 126.765Z" fill="#EEDFF2"/>
			</g>
		</svg>

		<svg viewBox="0 0 503 280" fill="none" xmlns="http://www.w3.org/2000/svg">
			<g id="footer-shape" class="img">
				<path d="M155.5 84.5037C71.7737 169.288 10.8333 326.17 0 405.004C0 416.504 22.2 447.904 111 481.504C222 523.504 619 387.504 643.5 296.504C668 205.504 525.5 199.253 468.5 166.003C426.5 141.503 428 71.1086 387 23.0037C362.692 -5.51624 266 -27.392 155.5 84.5037Z" fill="#7359BA"/>
			</g>
		</svg>

		<svg viewBox="0 0 26 37" fill="none" xmlns="http://www.w3.org/2000/svg">
			<g id="up" class="img">
				<path d="M14.0607 0.939341C13.4749 0.353554 12.5251 0.353554 11.9393 0.939341L2.3934 10.4853C1.80761 11.0711 1.80761 12.0208 2.3934 12.6066C2.97919 13.1924 3.92893 13.1924 4.51472 12.6066L13 4.12132L21.4853 12.6066C22.0711 13.1924 23.0208 13.1924 23.6066 12.6066C24.1924 12.0208 24.1924 11.0711 23.6066 10.4853L14.0607 0.939341ZM14.5 27L14.5 2H11.5L11.5 27H14.5Z" fill="white"/>
				<line x1="1.5" y1="35.5" x2="24.5" y2="35.5" stroke="white" stroke-width="3" stroke-linecap="round" stroke-linejoin="round"/>
			</g>
		</svg>

		<svg viewBox="0 0 11 9" fill="none" xmlns="http://www.w3.org/2000/svg">
			<g id="checkbox" class="img">
				<path fill-rule="evenodd" clip-rule="evenodd" d="M10.3135 1.70725L4.2425 7.77825C3.8515 8.16925 3.2185 8.16925 2.8285 7.77825L0.2925 5.24325C-0.0975 4.85225 -0.0975 4.21925 0.2925 3.82825C0.6835 3.43825 1.3165 3.43825 1.7065 3.82825L3.5355 5.65725L8.8995 0.29325C9.2895 -0.09775 9.9225 -0.09775 10.3135 0.29325C10.7045 0.68325 10.7045 1.31625 10.3135 1.70725Z" fill="#FFAB01"/>
			</g>
		</svg>

		<svg viewBox="0 0 10 10" fill="none" xmlns="http://www.w3.org/2000/svg">
			<g id="file-close" class="img">
				<path d="M9.70757 0.292433C9.31754 -0.0974775 8.6853 -0.0974775 8.29528 0.292433L5.00626 3.58145L1.71724 0.292433C1.32533 -0.0860816 0.702378 -0.0806683 0.317111 0.304599C-0.0681569 0.689867 -0.0735702 1.31282 0.304944 1.70472L3.59396 4.99374L0.304944 8.28276C0.0453016 8.53354 -0.0588284 8.90489 0.0325764 9.2541C0.123981 9.6033 0.396696 9.87602 0.745903 9.96742C1.09511 10.0588 1.46646 9.9547 1.71724 9.69506L5.00626 6.40604L8.29528 9.69506C8.68718 10.0736 9.31013 10.0682 9.6954 9.68289C10.0807 9.29762 10.0861 8.67467 9.70757 8.28276L6.41855 4.99374L9.70757 1.70472C10.0975 1.3147 10.0975 0.682461 9.70757 0.292433Z" fill="#E0E0E0"/>
			</g>
		</svg>

		<svg viewBox="0 0 71 71" fill="none" xmlns="http://www.w3.org/2000/svg">
			<g opacity="0.5" id="file" class="img">
				<path d="M50.2917 26.0334H20.7084C20.0552 26.0334 19.525 26.5624 19.525 27.2168C19.525 27.8712 20.0552 28.4001 20.7084 28.4001H50.2917C50.9449 28.4001 51.475 27.8712 51.475 27.2168C51.475 26.5624 50.9449 26.0334 50.2917 26.0334Z" fill="#2D3436"/>
				<path d="M20.7084 18.9333H32.5417C33.1949 18.9333 33.725 18.4044 33.725 17.75C33.725 17.0956 33.1949 16.5667 32.5417 16.5667H20.7084C20.0552 16.5667 19.525 17.0956 19.525 17.75C19.525 18.4044 20.0552 18.9333 20.7084 18.9333Z" fill="#2D3436"/>
				<path d="M50.2917 35.5H20.7084C20.0552 35.5 19.525 36.029 19.525 36.6833C19.525 37.3377 20.0552 37.8667 20.7084 37.8667H50.2917C50.9449 37.8667 51.475 37.3377 51.475 36.6833C51.475 36.029 50.9449 35.5 50.2917 35.5Z" fill="#2D3436"/>
				<path d="M50.2917 44.9666H20.7084C20.0552 44.9666 19.525 45.4955 19.525 46.1499C19.525 46.8043 20.0552 47.3332 20.7084 47.3332H50.2917C50.9449 47.3332 51.475 46.8043 51.475 46.1499C51.475 45.4955 50.9449 44.9666 50.2917 44.9666Z" fill="#2D3436"/>
				<path d="M50.2917 54.4333H20.7084C20.0552 54.4333 19.525 54.9623 19.525 55.6167C19.525 56.2711 20.0552 56.8 20.7084 56.8H50.2917C50.9449 56.8 51.475 56.2711 51.475 55.6167C51.475 54.9623 50.9449 54.4333 50.2917 54.4333Z" fill="#2D3436"/>
				<path d="M46.0482 0H7.69165V71H63.3083V17.2601L46.0482 0ZM46.7416 4.0399L59.2684 16.5667H46.7416V4.0399ZM10.0583 68.6333V2.36667H44.375V18.9333H60.9416V68.6333H10.0583Z" fill="#2D3436"/>
			</g>
		</svg>

		<svg viewBox="0 0 21 16" fill="none" xmlns="http://www.w3.org/2000/svg">
			<g id="arrow" class="img">
				<path d="M0.292892 8.70711C-0.0976315 8.31658 -0.0976315 7.68342 0.292892 7.29289L6.65685 0.928932C7.04738 0.538408 7.68054 0.538408 8.07107 0.928932C8.46159 1.31946 8.46159 1.95262 8.07107 2.34315L2.41421 8L8.07107 13.6569C8.46159 14.0474 8.46159 14.6805 8.07107 15.0711C7.68054 15.4616 7.04738 15.4616 6.65685 15.0711L0.292892 8.70711ZM21 9H1V7H21V9Z" fill="white"/>
			</g>
		</svg>

		<svg viewBox="0 0 378 403" fill="none" xmlns="http://www.w3.org/2000/svg">
			<g id="user-shape1" class="img">
				<path opacity="0.8" d="M50.1958 309.354C15.0945 274.514 33.4672 196.863 72.0915 143.346C110.716 89.8283 207.474 21.2634 300.115 78.702C336.177 101.056 390.158 164.758 289.876 265.956C234.198 322.122 98.6769 357.481 50.1958 309.354Z" fill="#EEDFF2"/>
			</g>
		</svg>

		<svg viewBox="0 0 375 400" fill="none" xmlns="http://www.w3.org/2000/svg">
			<g id="user-shape2" class="img">
				<path opacity="0.8" d="M50.1718 93.2843C15.3331 127.863 33.5684 204.934 71.9036 258.051C110.239 311.167 206.273 379.219 298.221 322.21C334.013 300.024 387.59 236.799 288.058 136.358C232.797 80.612 98.2901 45.5178 50.1718 93.2843Z" fill="#B8A6FF"/>
			</g>
		</svg>

		<svg viewBox="0 0 351 383" fill="none" xmlns="http://www.w3.org/2000/svg">
			<g id="user-shape3" class="img">
				<path opacity="0.8" d="M51.9116 316.424C12.5229 286.516 20.4965 207.12 51.7269 148.977C82.9574 90.8347 169.83 10.1103 269.236 54.8322C307.931 72.2358 369.84 128.264 283.777 241.802C235.99 304.819 106.315 357.738 51.9116 316.424Z" fill="#FFE29D"/>
			</g>
		</svg>

		<svg viewBox="0 0 378 402" fill="none" xmlns="http://www.w3.org/2000/svg">
			<g id="user-shape4" class="img">
				<path opacity="0.8" d="M50.1958 93.4072C15.0945 128.247 33.4672 205.899 72.0915 259.416C110.716 312.933 207.474 381.498 300.115 324.06C336.177 301.706 390.158 238.004 289.876 136.805C234.198 80.6393 98.6769 45.2805 50.1958 93.4072Z" fill="#FFE29D"/>
			</g>
		</svg>

		<svg viewBox="0 0 378 402" fill="none" xmlns="http://www.w3.org/2000/svg">
			<g id="user-shape5" class="img">
				<path opacity="0.8" d="M327.924 93.4067C363.026 128.247 344.653 205.898 306.029 259.415C267.404 312.933 170.646 381.498 78.0052 324.059C41.9431 301.705 -12.0379 238.003 88.2444 136.805C143.923 80.6388 279.443 45.28 327.924 93.4067Z" fill="#EEDFF2"/>
			</g>
		</svg>

		<svg viewBox="0 0 361 365" fill="none" xmlns="http://www.w3.org/2000/svg">
			<g id="plash-shape1" class="img">
				<path fill-rule="evenodd" clip-rule="evenodd" d="M-218.046 346.35C63.6252 258.229 90.2276 380.672 151.156 350.61C212.085 320.548 104.271 234.555 164.028 182.431C206.047 145.778 320.072 279.283 354.702 161.258C389.333 43.2341 149.54 -254.744 101.363 -286.261C-10.9051 -359.708 -132.413 -5.10182 -427.101 -94.8701C-862.618 -227.538 -597.368 465.022 -218.046 346.35Z" fill="#7359BA"/>
			</g>
		</svg>

		<svg viewBox="0 0 133 125" fill="none" xmlns="http://www.w3.org/2000/svg">
			<g id="plash-shape2" class="img">
				<path opacity="0.8" fill-rule="evenodd" clip-rule="evenodd" d="M75.6514 124.737C107.324 124.737 133 99.1561 133 67.6001C133 36.044 121.966 0.737305 90.2936 0.737305C46.367 0.737305 75.6514 26.2667 59.789 45.7177C49.7279 58.0549 0 53.0118 0 80.9726C0 112.529 43.9786 124.737 75.6514 124.737Z" fill="#FFE29D"/>
			</g>
		</svg>

		<svg viewBox="0 0 318 265" fill="none" xmlns="http://www.w3.org/2000/svg">
			<g id="region-shape2" class="img">
				<path opacity="0.8" fill-rule="evenodd" clip-rule="evenodd" d="M-14.5788 263.899C7.02802 338.482 85.0057 381.428 159.589 359.821C234.173 338.214 310.094 288.056 288.487 213.474C258.521 110.035 218.159 196.474 161.365 172.44C125.342 157.195 103.338 36.6422 37.2516 55.7873C-37.3319 77.3941 -36.1856 189.315 -14.5788 263.899Z" fill="#FFE29D"/>
			</g>
		</svg>

		<svg viewBox="0 0 473 347" fill="none" xmlns="http://www.w3.org/2000/svg">
			<g id="region-shape3" class="img">
				<path opacity="0.8" fill-rule="evenodd" clip-rule="evenodd" d="M390.191 -45.1317C171.069 -121.429 259.776 -224.124 203.401 -227.982C147.025 -231.84 168.363 -113.251 130.592 -39.5062C96.9989 26.0832 90.9245 64.5 98.9026 84.5035C134.272 173.185 270.218 14.8458 327.13 190.623C348.439 256.441 466.324 304.638 506.037 252.056C564.232 175.004 524.008 1.46292 390.191 -45.1317Z" fill="#EEDFF2"/>
			</g>
		</svg>

		<svg viewBox="0 0 120 120" fill="none" xmlns="http://www.w3.org/2000/svg">
			<g id="zoom" class="img">
				<circle cx="60" cy="60" r="57.5" stroke="#FFAB01" stroke-width="5"/>
				<path d="M57.5795 35.1322C55.6437 35.1325 54.0745 36.7016 54.0742 38.6374L54.0742 54.9637L37.7479 54.9637C35.8358 54.997 34.3031 56.5565 34.3031 58.4689C34.3031 60.3814 35.8358 61.9409 37.7479 61.9742H54.0742L54.0742 78.3005C54.0522 79.5673 54.7154 80.7475 55.809 81.3873C56.9026 82.0272 58.2563 82.0272 59.3499 81.3873C60.4435 80.7475 61.1067 79.5673 61.0847 78.3005L61.0847 61.9742L77.411 61.9742C79.3232 61.9409 80.8559 60.3814 80.8559 58.4689C80.8559 56.5565 79.3232 54.997 77.411 54.9637H61.0847L61.0847 38.6374C61.0844 36.7016 59.5152 35.1325 57.5795 35.1322Z" fill="#FFAB01"/>
			</g>
		</svg>













    <svg viewBox="0 0 16 16">
        <g id="chart" class="img">
        
        </g>
    </svg>

</svg>